<svg width="375" height="269" viewBox="0 0 375 269" fill="none" xmlns="http://www.w3.org/2000/svg">
<g filter="url(#filter0_d_535_2530)">
<rect x="20" y="9.91669" width="335" height="228.917" rx="16.75" fill="white"/>
</g>
<rect x="75.2749" y="50.1167" width="0.558333" height="151.308" fill="#EEEEF7"/>
<rect x="110.45" y="50.1167" width="0.558333" height="151.308" fill="#EEEEF7"/>
<rect x="145.625" y="50.1167" width="0.558333" height="151.308" fill="#EEEEF7"/>
<rect x="180.8" y="50.1167" width="0.558333" height="151.308" fill="#EEEEF7"/>
<rect x="215.975" y="50.1167" width="0.558333" height="151.308" fill="#EEEEF7"/>
<rect x="251.15" y="50.1167" width="0.558333" height="151.308" fill="#EEEEF7"/>
<rect x="286.325" y="50.1167" width="0.558333" height="151.308" fill="#EEEEF7"/>
<rect x="321.5" y="50.1167" width="0.558333" height="151.308" fill="#EEEEF7"/>
<path d="M53.0597 61.5496L52.5755 61.4253L52.8143 59.0534H55.2581V59.6129H53.3279L53.184 60.9084C53.2712 60.8582 53.3814 60.8113 53.5144 60.7677C53.6496 60.7241 53.8045 60.7023 53.979 60.7023C54.1992 60.7023 54.3966 60.7404 54.5711 60.8168C54.7456 60.8909 54.8939 60.9978 55.016 61.1374C55.1403 61.2769 55.2352 61.4449 55.3006 61.6412C55.3661 61.8375 55.3988 62.0567 55.3988 62.2987C55.3988 62.5277 55.3672 62.7382 55.3039 62.9301C55.2428 63.1221 55.1501 63.29 55.0258 63.4339C54.9015 63.5757 54.7445 63.6859 54.5547 63.7644C54.3672 63.8429 54.1458 63.8821 53.8906 63.8821C53.6987 63.8821 53.5166 63.856 53.3443 63.8036C53.1742 63.7491 53.0215 63.6673 52.8863 63.5583C52.7532 63.447 52.6442 63.3096 52.5591 63.1461C52.4763 62.9803 52.4239 62.7862 52.4021 62.5637H52.9779C53.0041 62.7426 53.0564 62.8931 53.1349 63.0152C53.2134 63.1373 53.3159 63.23 53.4424 63.2933C53.5711 63.3543 53.7205 63.3849 53.8906 63.3849C54.0346 63.3849 54.1622 63.3598 54.2734 63.3096C54.3846 63.2595 54.4784 63.1875 54.5547 63.0937C54.6311 62.9999 54.6889 62.8865 54.7281 62.7535C54.7696 62.6204 54.7903 62.471 54.7903 62.3053C54.7903 62.1548 54.7696 62.0152 54.7281 61.8865C54.6867 61.7579 54.6245 61.6455 54.5417 61.5496C54.461 61.4536 54.3617 61.3795 54.2439 61.3271C54.1262 61.2726 53.991 61.2453 53.8383 61.2453C53.6355 61.2453 53.4817 61.2726 53.377 61.3271C53.2745 61.3816 53.1687 61.4558 53.0597 61.5496ZM59.282 62.2137V62.7109H55.8404V62.3544L57.9734 59.0534H58.4674L57.9375 60.0087L56.5274 62.2137H59.282ZM58.6179 59.0534V63.8167H58.0127V59.0534H58.6179ZM61.1566 61.543V62.0403H59.5601V61.543H61.1566ZM64.0061 59.0469H64.0584V59.5605H64.0061C63.6854 59.5605 63.4172 59.6129 63.2013 59.7175C62.9854 59.82 62.8141 59.9585 62.6876 60.133C62.5611 60.3053 62.4695 60.4994 62.4128 60.7153C62.3583 60.9313 62.3311 61.1505 62.3311 61.3729V62.073C62.3311 62.2846 62.3561 62.4721 62.4063 62.6357C62.4565 62.7971 62.5252 62.9334 62.6124 63.0446C62.6996 63.1559 62.7978 63.2398 62.9068 63.2965C63.0181 63.3533 63.1337 63.3816 63.2536 63.3816C63.3932 63.3816 63.5175 63.3554 63.6266 63.3031C63.7356 63.2486 63.8272 63.1733 63.9014 63.0774C63.9777 62.9792 64.0355 62.8636 64.0748 62.7306C64.114 62.5975 64.1336 62.4514 64.1336 62.2922C64.1336 62.1504 64.1162 62.0141 64.0813 61.8833C64.0464 61.7502 63.993 61.6325 63.921 61.5299C63.849 61.4253 63.7585 61.3435 63.6495 61.2846C63.5426 61.2235 63.415 61.193 63.2667 61.193C63.0988 61.193 62.9417 61.2344 62.7956 61.3173C62.6517 61.398 62.5328 61.5049 62.439 61.6379C62.3474 61.7688 62.2951 61.9116 62.282 62.0665L61.9614 62.0632C61.9919 61.8189 62.0486 61.6106 62.1315 61.4383C62.2166 61.2639 62.3212 61.1221 62.4456 61.013C62.5721 60.9018 62.7127 60.8211 62.8676 60.771C63.0246 60.7186 63.1904 60.6924 63.3648 60.6924C63.6026 60.6924 63.8076 60.7372 63.9799 60.8266C64.1522 60.916 64.2939 61.0359 64.4052 61.1864C64.5164 61.3347 64.5982 61.5027 64.6505 61.6902C64.7051 61.8756 64.7323 62.0665 64.7323 62.2628C64.7323 62.4874 64.7007 62.6979 64.6375 62.8942C64.5742 63.0904 64.4793 63.2627 64.3528 63.411C64.2285 63.5594 64.0748 63.6749 63.8916 63.7578C63.7083 63.8407 63.4957 63.8821 63.2536 63.8821C62.9963 63.8821 62.7716 63.8298 62.5797 63.7251C62.3878 63.6182 62.2285 63.4765 62.1021 63.2998C61.9756 63.1232 61.8807 62.9269 61.8174 62.7109C61.7542 62.495 61.7226 62.2758 61.7226 62.0534V61.7688C61.7226 61.4329 61.7564 61.1036 61.824 60.7808C61.8916 60.458 62.0083 60.1657 62.174 59.904C62.342 59.6423 62.5742 59.434 62.8709 59.2792C63.1675 59.1243 63.5459 59.0469 64.0061 59.0469ZM66.2176 61.5496L65.7334 61.4253L65.9722 59.0534H68.416V59.6129H66.4858L66.3419 60.9084C66.4291 60.8582 66.5393 60.8113 66.6723 60.7677C66.8075 60.7241 66.9624 60.7023 67.1369 60.7023C67.3571 60.7023 67.5545 60.7404 67.729 60.8168C67.9035 60.8909 68.0518 60.9978 68.1739 61.1374C68.2982 61.2769 68.3931 61.4449 68.4585 61.6412C68.524 61.8375 68.5567 62.0567 68.5567 62.2987C68.5567 62.5277 68.5251 62.7382 68.4618 62.9301C68.4007 63.1221 68.3081 63.29 68.1837 63.4339C68.0594 63.5757 67.9024 63.6859 67.7126 63.7644C67.5251 63.8429 67.3037 63.8821 67.0485 63.8821C66.8566 63.8821 66.6745 63.856 66.5022 63.8036C66.3321 63.7491 66.1794 63.6673 66.0442 63.5583C65.9111 63.447 65.8021 63.3096 65.717 63.1461C65.6342 62.9803 65.5818 62.7862 65.56 62.5637H66.1358C66.162 62.7426 66.2143 62.8931 66.2928 63.0152C66.3713 63.1373 66.4738 63.23 66.6003 63.2933C66.729 63.3543 66.8784 63.3849 67.0485 63.3849C67.1925 63.3849 67.3201 63.3598 67.4313 63.3096C67.5425 63.2595 67.6363 63.1875 67.7126 63.0937C67.789 62.9999 67.8468 62.8865 67.886 62.7535C67.9275 62.6204 67.9482 62.471 67.9482 62.3053C67.9482 62.1548 67.9275 62.0152 67.886 61.8865C67.8446 61.7579 67.7824 61.6455 67.6996 61.5496C67.6189 61.4536 67.5196 61.3795 67.4019 61.3271C67.2841 61.2726 67.1489 61.2453 66.9962 61.2453C66.7934 61.2453 66.6396 61.2726 66.5349 61.3271C66.4324 61.3816 66.3266 61.4558 66.2176 61.5496Z" fill="#8794BA"/>
<path d="M55.5133 93.4803V93.9776H52.0717V93.621L54.2047 90.3201H54.6987L54.1687 91.2754L52.7587 93.4803H55.5133ZM54.8492 90.3201V95.0834H54.2439V90.3201H54.8492ZM56.8284 92.8162L56.3442 92.6919L56.5831 90.3201H59.0269V90.8795H57.0967L56.9527 92.175C57.04 92.1249 57.1501 92.078 57.2832 92.0344C57.4184 91.9907 57.5732 91.9689 57.7477 91.9689C57.968 91.9689 58.1654 92.0071 58.3398 92.0834C58.5143 92.1576 58.6626 92.2644 58.7848 92.404C58.9091 92.5436 59.004 92.7115 59.0694 92.9078C59.1348 93.1041 59.1675 93.3233 59.1675 93.5654C59.1675 93.7944 59.1359 94.0049 59.0727 94.1968C59.0116 94.3887 58.9189 94.5567 58.7946 94.7006C58.6703 94.8424 58.5132 94.9525 58.3235 95.031C58.1359 95.1095 57.9146 95.1488 57.6594 95.1488C57.4674 95.1488 57.2853 95.1226 57.113 95.0703C56.9429 95.0158 56.7903 94.934 56.655 94.8249C56.522 94.7137 56.4129 94.5763 56.3279 94.4127C56.245 94.247 56.1927 94.0529 56.1709 93.8304H56.7466C56.7728 94.0092 56.8251 94.1597 56.9037 94.2819C56.9822 94.404 57.0847 94.4967 57.2112 94.5599C57.3399 94.621 57.4893 94.6515 57.6594 94.6515C57.8033 94.6515 57.9309 94.6265 58.0421 94.5763C58.1534 94.5261 58.2472 94.4542 58.3235 94.3604C58.3998 94.2666 58.4576 94.1532 58.4969 94.0201C58.5383 93.8871 58.559 93.7377 58.559 93.5719C58.559 93.4215 58.5383 93.2819 58.4969 93.1532C58.4554 93.0245 58.3933 92.9122 58.3104 92.8162C58.2297 92.7203 58.1305 92.6461 58.0127 92.5938C57.8949 92.5392 57.7597 92.512 57.607 92.512C57.4042 92.512 57.2504 92.5392 57.1458 92.5938C57.0432 92.6483 56.9375 92.7225 56.8284 92.8162ZM61.1566 92.8097V93.307H59.5601V92.8097H61.1566ZM62.4488 92.8162L61.9646 92.6919L62.2035 90.3201H64.6473V90.8795H62.7171L62.5731 92.175C62.6604 92.1249 62.7705 92.078 62.9036 92.0344C63.0388 91.9907 63.1936 91.9689 63.3681 91.9689C63.5884 91.9689 63.7858 92.0071 63.9603 92.0834C64.1347 92.1576 64.283 92.2644 64.4052 92.404C64.5295 92.5436 64.6244 92.7115 64.6898 92.9078C64.7552 93.1041 64.7879 93.3233 64.7879 93.5654C64.7879 93.7944 64.7563 94.0049 64.6931 94.1968C64.632 94.3887 64.5393 94.5567 64.415 94.7006C64.2907 94.8424 64.1336 94.9525 63.9439 95.031C63.7563 95.1095 63.535 95.1488 63.2798 95.1488C63.0879 95.1488 62.9057 95.1226 62.7334 95.0703C62.5633 95.0158 62.4107 94.934 62.2754 94.8249C62.1424 94.7137 62.0334 94.5763 61.9483 94.4127C61.8654 94.247 61.8131 94.0529 61.7913 93.8304H62.367C62.3932 94.0092 62.4456 94.1597 62.5241 94.2819C62.6026 94.404 62.7051 94.4967 62.8316 94.5599C62.9603 94.621 63.1097 94.6515 63.2798 94.6515C63.4237 94.6515 63.5513 94.6265 63.6625 94.5763C63.7738 94.5261 63.8676 94.4542 63.9439 94.3604C64.0202 94.2666 64.078 94.1532 64.1173 94.0201C64.1587 93.8871 64.1794 93.7377 64.1794 93.5719C64.1794 93.4215 64.1587 93.2819 64.1173 93.1532C64.0758 93.0245 64.0137 92.9122 63.9308 92.8162C63.8501 92.7203 63.7509 92.6461 63.6331 92.5938C63.5153 92.5392 63.3801 92.512 63.2274 92.512C63.0246 92.512 62.8709 92.5392 62.7662 92.5938C62.6637 92.6483 62.5579 92.7225 62.4488 92.8162ZM68.6712 93.4803V93.9776H65.2296V93.621L67.3626 90.3201H67.8566L67.3266 91.2754L65.9166 93.4803H68.6712ZM68.0071 90.3201V95.0834H67.4019V90.3201H68.0071Z" fill="#8794BA"/>
<path d="M53.1774 123.671H53.6093C53.8208 123.671 53.9953 123.636 54.1327 123.566C54.2723 123.494 54.3759 123.397 54.4435 123.275C54.5133 123.15 54.5482 123.011 54.5482 122.856C54.5482 122.673 54.5177 122.519 54.4566 122.395C54.3955 122.27 54.3039 122.177 54.1818 122.113C54.0597 122.05 53.9048 122.019 53.7172 122.019C53.5471 122.019 53.3966 122.052 53.2658 122.12C53.1371 122.185 53.0357 122.279 52.9615 122.401C52.8896 122.523 52.8536 122.667 52.8536 122.833H52.2483C52.2483 122.591 52.3094 122.371 52.4315 122.172C52.5537 121.974 52.7249 121.816 52.9452 121.698C53.1676 121.58 53.425 121.521 53.7172 121.521C54.0051 121.521 54.257 121.573 54.473 121.675C54.6889 121.775 54.8568 121.926 54.9768 122.126C55.0967 122.325 55.1567 122.573 55.1567 122.869C55.1567 122.989 55.1283 123.118 55.0716 123.255C55.0171 123.39 54.931 123.517 54.8132 123.635C54.6976 123.752 54.5471 123.849 54.3617 123.926C54.1763 124 53.9539 124.037 53.6943 124.037H53.1774V123.671ZM53.1774 124.168V123.805H53.6943C53.9975 123.805 54.2483 123.841 54.4468 123.913C54.6452 123.985 54.8012 124.081 54.9146 124.201C55.0302 124.321 55.1109 124.453 55.1567 124.596C55.2047 124.738 55.2287 124.88 55.2287 125.022C55.2287 125.244 55.1905 125.442 55.1142 125.614C55.04 125.786 54.9342 125.932 54.7968 126.052C54.6616 126.172 54.5024 126.263 54.3192 126.324C54.136 126.385 53.9364 126.415 53.7205 126.415C53.5133 126.415 53.3181 126.386 53.1349 126.327C52.9539 126.268 52.7936 126.183 52.654 126.072C52.5144 125.958 52.4054 125.82 52.3269 125.656C52.2483 125.491 52.2091 125.302 52.2091 125.09H52.8143C52.8143 125.256 52.8503 125.401 52.9223 125.526C52.9964 125.65 53.1011 125.747 53.2363 125.817C53.3737 125.884 53.5351 125.918 53.7205 125.918C53.9059 125.918 54.0651 125.887 54.1981 125.823C54.3334 125.758 54.437 125.66 54.5089 125.529C54.5831 125.398 54.6202 125.233 54.6202 125.035C54.6202 124.836 54.5787 124.674 54.4959 124.547C54.413 124.419 54.2952 124.324 54.1425 124.263C53.992 124.2 53.8143 124.168 53.6093 124.168H53.1774ZM56.8284 124.083L56.3442 123.959L56.5831 121.587H59.0269V122.146H57.0967L56.9527 123.442C57.04 123.391 57.1501 123.345 57.2832 123.301C57.4184 123.257 57.5732 123.236 57.7477 123.236C57.968 123.236 58.1654 123.274 58.3398 123.35C58.5143 123.424 58.6626 123.531 58.7848 123.671C58.9091 123.81 59.004 123.978 59.0694 124.174C59.1348 124.371 59.1675 124.59 59.1675 124.832C59.1675 125.061 59.1359 125.271 59.0727 125.463C59.0116 125.655 58.9189 125.823 58.7946 125.967C58.6703 126.109 58.5132 126.219 58.3235 126.298C58.1359 126.376 57.9146 126.415 57.6594 126.415C57.4674 126.415 57.2853 126.389 57.113 126.337C56.9429 126.282 56.7903 126.201 56.655 126.092C56.522 125.98 56.4129 125.843 56.3279 125.679C56.245 125.514 56.1927 125.319 56.1709 125.097H56.7466C56.7728 125.276 56.8251 125.426 56.9037 125.548C56.9822 125.671 57.0847 125.763 57.2112 125.827C57.3399 125.888 57.4893 125.918 57.6594 125.918C57.8033 125.918 57.9309 125.893 58.0421 125.843C58.1534 125.793 58.2472 125.721 58.3235 125.627C58.3998 125.533 58.4576 125.42 58.4969 125.287C58.5383 125.154 58.559 125.004 58.559 124.839C58.559 124.688 58.5383 124.548 58.4969 124.42C58.4554 124.291 58.3933 124.179 58.3104 124.083C58.2297 123.987 58.1305 123.913 58.0127 123.86C57.8949 123.806 57.7597 123.779 57.607 123.779C57.4042 123.779 57.2504 123.806 57.1458 123.86C57.0432 123.915 56.9375 123.989 56.8284 124.083ZM61.1566 124.076V124.574H59.5601V124.076H61.1566ZM64.9024 124.747V125.244H61.4608V124.888L63.5938 121.587H64.0878L63.5579 122.542L62.1479 124.747H64.9024ZM64.2383 121.587V126.35H63.6331V121.587H64.2383ZM68.6712 124.747V125.244H65.2296V124.888L67.3626 121.587H67.8566L67.3266 122.542L65.9166 124.747H68.6712ZM68.0071 121.587V126.35H67.4019V121.587H68.0071Z" fill="#8794BA"/>
<path d="M55.4151 157.119V157.617H52.2974V157.182L53.8579 155.444C54.0498 155.231 54.1981 155.05 54.3028 154.901C54.4097 154.751 54.4839 154.617 54.5253 154.499C54.5689 154.379 54.5907 154.257 54.5907 154.133C54.5907 153.976 54.558 153.834 54.4926 153.707C54.4293 153.579 54.3355 153.476 54.2112 153.4C54.0869 153.323 53.9364 153.285 53.7598 153.285C53.5482 153.285 53.3716 153.327 53.2298 153.41C53.0902 153.49 52.9855 153.604 52.9157 153.75C52.8459 153.896 52.811 154.064 52.811 154.254H52.2058C52.2058 153.985 52.2647 153.74 52.3825 153.518C52.5002 153.295 52.6747 153.118 52.9059 152.988C53.1371 152.855 53.4217 152.788 53.7598 152.788C54.0607 152.788 54.3181 152.841 54.5318 152.948C54.7456 153.053 54.9091 153.201 55.0226 153.393C55.1382 153.583 55.1959 153.805 55.1959 154.061C55.1959 154.2 55.172 154.342 55.124 154.486C55.0782 154.628 55.0138 154.769 54.931 154.911C54.8503 155.053 54.7554 155.193 54.6463 155.33C54.5395 155.467 54.425 155.603 54.3028 155.736L53.027 157.119H55.4151ZM56.8284 155.35L56.3442 155.225L56.5831 152.853H59.0269V153.413H57.0967L56.9527 154.708C57.04 154.658 57.1501 154.611 57.2832 154.568C57.4184 154.524 57.5732 154.502 57.7477 154.502C57.968 154.502 58.1654 154.54 58.3398 154.617C58.5143 154.691 58.6626 154.798 58.7848 154.937C58.9091 155.077 59.004 155.245 59.0694 155.441C59.1348 155.637 59.1675 155.857 59.1675 156.099C59.1675 156.328 59.1359 156.538 59.0727 156.73C59.0116 156.922 58.9189 157.09 58.7946 157.234C58.6703 157.376 58.5132 157.486 58.3235 157.564C58.1359 157.643 57.9146 157.682 57.6594 157.682C57.4674 157.682 57.2853 157.656 57.113 157.604C56.9429 157.549 56.7903 157.467 56.655 157.358C56.522 157.247 56.4129 157.11 56.3279 156.946C56.245 156.78 56.1927 156.586 56.1709 156.364H56.7466C56.7728 156.543 56.8251 156.693 56.9037 156.815C56.9822 156.937 57.0847 157.03 57.2112 157.093C57.3399 157.154 57.4893 157.185 57.6594 157.185C57.8033 157.185 57.9309 157.16 58.0421 157.11C58.1534 157.059 58.2472 156.987 58.3235 156.894C58.3998 156.8 58.4576 156.687 58.4969 156.553C58.5383 156.42 58.559 156.271 58.559 156.105C58.559 155.955 58.5383 155.815 58.4969 155.687C58.4554 155.558 58.3933 155.446 58.3104 155.35C58.2297 155.254 58.1305 155.179 58.0127 155.127C57.8949 155.073 57.7597 155.045 57.607 155.045C57.4042 155.045 57.2504 155.073 57.1458 155.127C57.0432 155.182 56.9375 155.256 56.8284 155.35ZM61.1566 155.343V155.84H59.5601V155.343H61.1566ZM62.5666 154.937H62.9984C63.21 154.937 63.3845 154.902 63.5219 154.833C63.6615 154.761 63.7651 154.664 63.8327 154.542C63.9025 154.417 63.9374 154.278 63.9374 154.123C63.9374 153.94 63.9068 153.786 63.8458 153.661C63.7847 153.537 63.6931 153.443 63.5709 153.38C63.4488 153.317 63.294 153.285 63.1064 153.285C62.9363 153.285 62.7858 153.319 62.6549 153.387C62.5263 153.452 62.4248 153.546 62.3507 153.668C62.2787 153.79 62.2427 153.934 62.2427 154.1H61.6375C61.6375 153.858 61.6986 153.637 61.8207 153.439C61.9428 153.241 62.114 153.082 62.3343 152.965C62.5568 152.847 62.8141 152.788 63.1064 152.788C63.3943 152.788 63.6462 152.839 63.8621 152.942C64.078 153.042 64.246 153.193 64.3659 153.393C64.4859 153.592 64.5458 153.839 64.5458 154.136C64.5458 154.256 64.5175 154.384 64.4608 154.522C64.4063 154.657 64.3201 154.784 64.2023 154.901C64.0868 155.019 63.9363 155.116 63.7509 155.193C63.5655 155.267 63.343 155.304 63.0835 155.304H62.5666V154.937ZM62.5666 155.435V155.071H63.0835C63.3867 155.071 63.6375 155.107 63.8359 155.179C64.0344 155.251 64.1903 155.347 64.3038 155.467C64.4194 155.587 64.5 155.719 64.5458 155.863C64.5938 156.005 64.6178 156.147 64.6178 156.288C64.6178 156.511 64.5797 156.708 64.5033 156.881C64.4292 157.053 64.3234 157.199 64.186 157.319C64.0508 157.439 63.8916 157.529 63.7083 157.591C63.5251 157.652 63.3256 157.682 63.1097 157.682C62.9025 157.682 62.7073 157.653 62.5241 157.594C62.3431 157.535 62.1827 157.45 62.0432 157.339C61.9036 157.225 61.7945 157.087 61.716 156.923C61.6375 156.757 61.5982 156.569 61.5982 156.357H62.2035C62.2035 156.523 62.2395 156.668 62.3114 156.792C62.3856 156.917 62.4903 157.014 62.6255 157.083C62.7629 157.151 62.9243 157.185 63.1097 157.185C63.2951 157.185 63.4543 157.153 63.5873 157.09C63.7225 157.025 63.8261 156.926 63.8981 156.796C63.9722 156.665 64.0093 156.5 64.0093 156.302C64.0093 156.103 63.9679 155.941 63.885 155.814C63.8021 155.685 63.6844 155.591 63.5317 155.529C63.3812 155.466 63.2035 155.435 62.9984 155.435H62.5666ZM68.6712 156.014V156.511H65.2296V156.154L67.3626 152.853H67.8566L67.3266 153.809L65.9166 156.014H68.6712ZM68.0071 152.853V157.617H67.4019V152.853H68.0071Z" fill="#8794BA"/>
<path d="M54.2832 184.094V188.883H53.678V184.85L52.4577 185.295V184.748L54.1883 184.094H54.2832ZM59.0661 187.594C59.0661 187.884 58.9985 188.131 58.8633 188.334C58.7302 188.534 58.5492 188.687 58.3202 188.792C58.0934 188.896 57.8371 188.949 57.5514 188.949C57.2657 188.949 57.0084 188.896 56.7793 188.792C56.5503 188.687 56.3693 188.534 56.2363 188.334C56.1032 188.131 56.0367 187.884 56.0367 187.594C56.0367 187.405 56.0727 187.231 56.1447 187.074C56.2188 186.915 56.3224 186.777 56.4555 186.659C56.5907 186.541 56.7499 186.45 56.9331 186.387C57.1185 186.322 57.3224 186.289 57.5449 186.289C57.8371 186.289 58.0978 186.346 58.3268 186.459C58.5558 186.57 58.7357 186.724 58.8666 186.92C58.9996 187.117 59.0661 187.341 59.0661 187.594ZM58.4576 187.581C58.4576 187.405 58.4195 187.249 58.3431 187.113C58.2668 186.976 58.1599 186.869 58.0225 186.793C57.8851 186.717 57.7259 186.678 57.5449 186.678C57.3595 186.678 57.1992 186.717 57.064 186.793C56.9309 186.869 56.8273 186.976 56.7532 187.113C56.679 187.249 56.6419 187.405 56.6419 187.581C56.6419 187.765 56.6779 187.922 56.7499 188.052C56.8241 188.181 56.9287 188.28 57.064 188.35C57.2014 188.418 57.3639 188.452 57.5514 188.452C57.739 188.452 57.9004 188.418 58.0356 188.35C58.1708 188.28 58.2744 188.181 58.3464 188.052C58.4205 187.922 58.4576 187.765 58.4576 187.581ZM58.9549 185.36C58.9549 185.591 58.8938 185.799 58.7717 185.985C58.6495 186.17 58.4827 186.316 58.2711 186.423C58.0596 186.53 57.8197 186.584 57.5514 186.584C57.2788 186.584 57.0356 186.53 56.8219 186.423C56.6103 186.316 56.4446 186.17 56.3246 185.985C56.2047 185.799 56.1447 185.591 56.1447 185.36C56.1447 185.083 56.2047 184.847 56.3246 184.653C56.4467 184.459 56.6136 184.311 56.8251 184.208C57.0367 184.106 57.2777 184.055 57.5481 184.055C57.8208 184.055 58.0629 184.106 58.2744 184.208C58.486 184.311 58.6517 184.459 58.7717 184.653C58.8938 184.847 58.9549 185.083 58.9549 185.36ZM58.3497 185.37C58.3497 185.211 58.3159 185.07 58.2482 184.948C58.1806 184.826 58.0868 184.73 57.9669 184.66C57.8469 184.588 57.7074 184.552 57.5481 184.552C57.3889 184.552 57.2494 184.586 57.1294 184.653C57.0116 184.719 56.9189 184.813 56.8513 184.935C56.7859 185.057 56.7532 185.202 56.7532 185.37C56.7532 185.533 56.7859 185.676 56.8513 185.798C56.9189 185.92 57.0127 186.015 57.1327 186.083C57.2526 186.151 57.3922 186.184 57.5514 186.184C57.7106 186.184 57.8491 186.151 57.9669 186.083C58.0868 186.015 58.1806 185.92 58.2482 185.798C58.3159 185.676 58.3497 185.533 58.3497 185.37ZM61.1566 186.61V187.107H59.5601V186.61H61.1566ZM64.8043 188.386V188.883H61.6866V188.448L63.2471 186.711C63.439 186.497 63.5873 186.316 63.692 186.168C63.7989 186.018 63.873 185.883 63.9145 185.766C63.9581 185.646 63.9799 185.524 63.9799 185.399C63.9799 185.242 63.9472 185.1 63.8817 184.974C63.8185 184.845 63.7247 184.743 63.6004 184.666C63.4761 184.59 63.3256 184.552 63.1489 184.552C62.9374 184.552 62.7607 184.593 62.6189 184.676C62.4794 184.757 62.3747 184.87 62.3049 185.016C62.2351 185.163 62.2002 185.331 62.2002 185.52H61.595C61.595 185.252 61.6539 185.007 61.7716 184.784C61.8894 184.562 62.0639 184.385 62.2951 184.254C62.5263 184.121 62.8109 184.055 63.1489 184.055C63.4499 184.055 63.7073 184.108 63.921 184.215C64.1347 184.32 64.2983 184.468 64.4117 184.66C64.5273 184.85 64.5851 185.072 64.5851 185.327C64.5851 185.467 64.5611 185.609 64.5131 185.753C64.4673 185.894 64.403 186.036 64.3201 186.178C64.2394 186.32 64.1445 186.459 64.0355 186.597C63.9286 186.734 63.8141 186.869 63.692 187.002L62.4161 188.386H64.8043ZM68.6712 187.28V187.778H65.2296V187.421L67.3626 184.12H67.8566L67.3266 185.075L65.9166 187.28H68.6712ZM68.0071 184.12V188.883H67.4019V184.12H68.0071Z" fill="#8794BA"/>
<path d="M75.2749 54.025H218.487C220.183 54.025 221.558 55.3999 221.558 57.0959V57.0959C221.558 58.7918 220.183 60.1667 218.487 60.1667H75.2749V54.025Z" fill="#EF2A82"/>
<path d="M75.2749 85.85H169.912C171.608 85.85 172.983 87.2249 172.983 88.9209V88.9209C172.983 90.6168 171.608 91.9917 169.912 91.9917H75.2749V85.85Z" fill="#EF2A82"/>
<path d="M75.2749 117.675H81.1374C82.8334 117.675 84.2082 119.05 84.2082 120.746V120.746C84.2082 122.442 82.8334 123.817 81.1374 123.817H75.2749V117.675Z" fill="#EF2A82"/>
<path d="M75.2749 149.5H99.0041C100.7 149.5 102.075 150.875 102.075 152.571V152.571C102.075 154.267 100.7 155.642 99.0041 155.642H75.2749V149.5Z" fill="#EF2A82"/>
<path d="M75.2749 181.325H188.337C190.033 181.325 191.408 182.7 191.408 184.396V184.396C191.408 186.092 190.033 187.467 188.337 187.467H75.2749V181.325Z" fill="#EF2A82"/>
<path d="M75.2749 61.8417H154.837C156.533 61.8417 157.908 63.2165 157.908 64.9125V64.9125C157.908 66.6085 156.533 67.9833 154.837 67.9833H75.2749V61.8417Z" fill="#0088F0"/>
<path d="M75.2749 93.6667H188.337C190.033 93.6667 191.408 95.0415 191.408 96.7375V96.7375C191.408 98.4335 190.033 99.8084 188.337 99.8084H75.2749V93.6667Z" fill="#0088F0"/>
<path d="M75.2749 125.492H99.0041C100.7 125.492 102.075 126.867 102.075 128.563V128.563C102.075 130.259 100.7 131.633 99.0041 131.633H75.2749V125.492Z" fill="#0088F0"/>
<path d="M75.2749 157.317H261.479C263.175 157.317 264.55 158.692 264.55 160.387V160.387C264.55 162.083 263.175 163.458 261.479 163.458H75.2749V157.317Z" fill="#0088F0"/>
<path d="M75.2749 189.142H293.304C295 189.142 296.375 190.517 296.375 192.213V192.213C296.375 193.909 295 195.283 293.304 195.283H75.2749V189.142Z" fill="#0088F0"/>
<defs>
<filter id="filter0_d_535_2530" x="0.458335" y="0.425021" width="374.083" height="268" filterUnits="userSpaceOnUse" color-interpolation-filters="sRGB">
<feFlood flood-opacity="0" result="BackgroundImageFix"/>
<feColorMatrix in="SourceAlpha" type="matrix" values="0 0 0 0 0 0 0 0 0 0 0 0 0 0 0 0 0 0 127 0" result="hardAlpha"/>
<feMorphology radius="8.375" operator="erode" in="SourceAlpha" result="effect1_dropShadow_535_2530"/>
<feOffset dy="10.05"/>
<feGaussianBlur stdDeviation="13.9583"/>
<feColorMatrix type="matrix" values="0 0 0 0 0.0996452 0 0 0 0 0.164326 0 0 0 0 0.350284 0 0 0 0.2 0"/>
<feBlend mode="normal" in2="BackgroundImageFix" result="effect1_dropShadow_535_2530"/>
<feBlend mode="normal" in="SourceGraphic" in2="effect1_dropShadow_535_2530" result="shape"/>
</filter>
</defs>
</svg>
