<svg width="375" height="299" viewBox="0 0 375 299" fill="none" xmlns="http://www.w3.org/2000/svg">
<g filter="url(#filter0_d_535_2508)">
<rect x="20" y="17" width="335" height="228.917" rx="16.75" fill="white"/>
</g>
<path d="M203.684 95.2097V165.472L142.833 200.604L81.9836 165.473V95.2087L142.833 60.0779L203.684 95.2097Z" stroke="#EEEEF7" stroke-width="1.11667"/>
<path d="M182.408 107.492V153.19L142.833 176.038L103.258 153.19V107.492L142.833 84.6445L182.408 107.492Z" stroke="#EEEEF7" stroke-width="1.11667"/>
<path d="M188.661 103.203L191.928 157.924L143.025 186.994L107.143 149.479L110.681 111.925L143.036 85.2793L188.661 103.203Z" stroke="#0088F0" stroke-width="2.23333"/>
<path d="M168.092 116.365L184.956 154.909H142.988L113.682 146.722L96.2239 103.76L142.477 78.2133L168.092 116.365Z" stroke="#EF2A82" stroke-width="2.23333"/>
<path d="M156.297 122.567V138.115L142.833 145.887L129.369 138.115V122.567L142.833 114.795L156.297 122.567Z" stroke="#EEEEF7" stroke-width="1.11667"/>
<path d="M277.117 93.9738H278.611C279.55 93.9595 280.288 93.7123 280.826 93.2322C281.363 92.752 281.632 92.1035 281.632 91.2866C281.632 89.452 280.718 88.5348 278.891 88.5348C278.031 88.5348 277.343 88.782 276.827 89.2765C276.318 89.7638 276.064 90.4123 276.064 91.2221H274.075C274.075 89.9823 274.527 88.954 275.43 88.1371C276.34 87.3129 277.493 86.9009 278.891 86.9009C280.367 86.9009 281.524 87.2914 282.363 88.0726C283.201 88.8537 283.62 89.9393 283.62 91.3296C283.62 92.0103 283.398 92.6696 282.954 93.3074C282.517 93.9452 281.919 94.4217 281.159 94.737C282.019 95.0093 282.682 95.4608 283.148 96.0914C283.62 96.722 283.857 97.4924 283.857 98.4025C283.857 99.8071 283.398 100.921 282.481 101.745C281.564 102.57 280.371 102.982 278.902 102.982C277.433 102.982 276.236 102.584 275.311 101.788C274.394 100.993 273.935 99.9432 273.935 98.639H275.935C275.935 99.4631 276.204 100.122 276.741 100.617C277.278 101.111 277.999 101.359 278.902 101.359C279.862 101.359 280.596 101.108 281.105 100.606C281.614 100.104 281.868 99.3843 281.868 98.4455C281.868 97.5354 281.589 96.8367 281.03 96.3494C280.471 95.8621 279.665 95.6113 278.611 95.597H277.117V93.9738ZM294.982 97.5103H297.154V99.1334H294.982V102.767H292.983V99.1334H285.856V97.9618L292.865 87.1159H294.982V97.5103ZM288.114 97.5103H292.983V89.8354L292.747 90.2654L288.114 97.5103ZM298.777 90.1256C298.777 89.1869 299.074 88.4129 299.669 87.8038C300.271 87.1947 301.041 86.8901 301.98 86.8901C302.933 86.8901 303.703 87.1983 304.291 87.8146C304.886 88.4237 305.183 89.2155 305.183 90.1901V90.9533C305.183 91.8993 304.882 92.6732 304.28 93.2752C303.686 93.8699 302.926 94.1673 302.002 94.1673C301.07 94.1673 300.3 93.8699 299.69 93.2752C299.081 92.6732 298.777 91.8742 298.777 90.8781V90.1256ZM300.26 90.9533C300.26 91.5123 300.418 91.9745 300.733 92.34C301.048 92.6983 301.471 92.8774 302.002 92.8774C302.51 92.8774 302.919 92.7019 303.227 92.3507C303.542 91.9996 303.7 91.5195 303.7 90.9103V90.1256C303.7 89.5667 303.546 89.1045 303.238 88.739C302.93 88.3735 302.51 88.1908 301.98 88.1908C301.45 88.1908 301.031 88.3735 300.722 88.739C300.414 89.1045 300.26 89.581 300.26 90.1686V90.9533ZM306.398 98.9292C306.398 97.9905 306.695 97.2201 307.29 96.6181C307.892 96.009 308.662 95.7045 309.601 95.7045C310.54 95.7045 311.31 96.0054 311.912 96.6074C312.514 97.2093 312.815 98.0084 312.815 99.0045V99.7676C312.815 100.706 312.514 101.48 311.912 102.089C311.317 102.691 310.554 102.992 309.623 102.992C308.691 102.992 307.921 102.695 307.312 102.1C306.703 101.498 306.398 100.699 306.398 99.7032V98.9292ZM307.881 99.7676C307.881 100.334 308.039 100.8 308.354 101.165C308.67 101.523 309.092 101.702 309.623 101.702C310.139 101.702 310.551 101.527 310.859 101.176C311.167 100.817 311.321 100.334 311.321 99.7246V98.9292C311.321 98.3631 311.163 97.9009 310.848 97.5426C310.54 97.1843 310.124 97.0051 309.601 97.0051C309.092 97.0051 308.677 97.1843 308.354 97.5426C308.039 97.8937 307.881 98.3703 307.881 98.9722V99.7676ZM302.453 101.584L301.324 100.875L308.967 88.6423L310.096 89.3517L302.453 101.584Z" fill="#EF2A82"/>
<path d="M273.372 116.304C273.372 115.784 273.473 115.316 273.676 114.901C273.882 114.486 274.167 114.165 274.53 113.939C274.896 113.713 275.313 113.601 275.781 113.601C276.504 113.601 277.088 113.851 277.533 114.351C277.981 114.852 278.205 115.518 278.205 116.349V116.412C278.205 116.929 278.105 117.394 277.906 117.806C277.71 118.215 277.427 118.534 277.057 118.763C276.691 118.992 276.269 119.106 275.791 119.106C275.071 119.106 274.487 118.856 274.039 118.356C273.594 117.855 273.372 117.193 273.372 116.368V116.304ZM274.284 116.412C274.284 117.001 274.42 117.474 274.692 117.831C274.966 118.187 275.333 118.365 275.791 118.365C276.252 118.365 276.619 118.186 276.89 117.826C277.162 117.463 277.297 116.955 277.297 116.304C277.297 115.722 277.158 115.251 276.88 114.891C276.605 114.528 276.239 114.346 275.781 114.346C275.333 114.346 274.971 114.525 274.697 114.881C274.422 115.238 274.284 115.748 274.284 116.412ZM283.829 116.412C283.829 117.22 283.644 117.871 283.274 118.365C282.905 118.859 282.404 119.106 281.773 119.106C281.128 119.106 280.621 118.902 280.252 118.493V121.05H279.344V113.699H280.173L280.217 114.288C280.587 113.83 281.1 113.601 281.758 113.601C282.396 113.601 282.9 113.841 283.269 114.322C283.642 114.803 283.829 115.472 283.829 116.329V116.412ZM282.921 116.309C282.921 115.711 282.793 115.238 282.538 114.891C282.283 114.544 281.933 114.371 281.488 114.371C280.939 114.371 280.526 114.615 280.252 115.102V117.639C280.523 118.123 280.939 118.365 281.498 118.365C281.933 118.365 282.278 118.194 282.533 117.85C282.792 117.503 282.921 116.99 282.921 116.309ZM286.219 112.413V113.699H287.21V114.4H286.219V117.693C286.219 117.906 286.263 118.066 286.351 118.174C286.44 118.279 286.59 118.331 286.803 118.331C286.907 118.331 287.051 118.312 287.235 118.272V119.008C286.996 119.074 286.763 119.106 286.538 119.106C286.132 119.106 285.826 118.984 285.62 118.738C285.414 118.493 285.311 118.145 285.311 117.693V114.4H284.344V113.699H285.311V112.413H286.219ZM289.261 119.008H288.353V113.699H289.261V119.008ZM288.28 112.29C288.28 112.143 288.324 112.019 288.412 111.917C288.504 111.816 288.638 111.765 288.815 111.765C288.991 111.765 289.125 111.816 289.217 111.917C289.309 112.019 289.354 112.143 289.354 112.29C289.354 112.438 289.309 112.56 289.217 112.658C289.125 112.757 288.991 112.806 288.815 112.806C288.638 112.806 288.504 112.757 288.412 112.658C288.324 112.56 288.28 112.438 288.28 112.29ZM290.478 116.304C290.478 115.784 290.58 115.316 290.782 114.901C290.989 114.486 291.273 114.165 291.636 113.939C292.003 113.713 292.42 113.601 292.888 113.601C293.611 113.601 294.195 113.851 294.64 114.351C295.088 114.852 295.312 115.518 295.312 116.349V116.412C295.312 116.929 295.212 117.394 295.012 117.806C294.816 118.215 294.533 118.534 294.164 118.763C293.797 118.992 293.375 119.106 292.897 119.106C292.178 119.106 291.594 118.856 291.146 118.356C290.701 117.855 290.478 117.193 290.478 116.368V116.304ZM291.391 116.412C291.391 117.001 291.527 117.474 291.798 117.831C292.073 118.187 292.439 118.365 292.897 118.365C293.359 118.365 293.725 118.186 293.997 117.826C294.268 117.463 294.404 116.955 294.404 116.304C294.404 115.722 294.265 115.251 293.987 114.891C293.712 114.528 293.346 114.346 292.888 114.346C292.439 114.346 292.078 114.525 291.803 114.881C291.528 115.238 291.391 115.748 291.391 116.412ZM297.309 113.699L297.339 114.366C297.744 113.856 298.274 113.601 298.928 113.601C300.051 113.601 300.617 114.234 300.626 115.5V119.008H299.719V115.495C299.715 115.112 299.627 114.829 299.454 114.646C299.283 114.463 299.017 114.371 298.654 114.371C298.359 114.371 298.101 114.45 297.878 114.607C297.656 114.764 297.482 114.97 297.358 115.225V119.008H296.45V113.699H297.309ZM307.379 119.008H306.466V112.958L304.636 113.63V112.806L307.236 111.829H307.379V119.008Z" fill="#8794BA"/>
<path d="M284.48 165.3H274.226V163.87L279.643 157.851C280.446 156.941 280.998 156.203 281.299 155.636C281.607 155.063 281.761 154.472 281.761 153.863C281.761 153.046 281.514 152.376 281.019 151.853C280.525 151.33 279.865 151.068 279.041 151.068C278.052 151.068 277.282 151.351 276.73 151.917C276.186 152.476 275.913 153.257 275.913 154.261H273.925C273.925 152.82 274.387 151.656 275.311 150.767C276.243 149.879 277.486 149.434 279.041 149.434C280.496 149.434 281.646 149.818 282.492 150.584C283.337 151.344 283.76 152.358 283.76 153.626C283.76 155.167 282.778 157.002 280.815 159.13L276.623 163.677H284.48V165.3ZM294.208 158.421C293.793 158.915 293.295 159.313 292.714 159.614C292.141 159.915 291.51 160.065 290.822 160.065C289.919 160.065 289.131 159.843 288.458 159.399C287.791 158.954 287.275 158.331 286.91 157.528C286.544 156.719 286.362 155.826 286.362 154.852C286.362 153.806 286.559 152.863 286.953 152.025C287.354 151.186 287.92 150.545 288.651 150.101C289.382 149.656 290.235 149.434 291.209 149.434C292.757 149.434 293.975 150.015 294.864 151.176C295.76 152.329 296.208 153.906 296.208 155.905V156.486C296.208 159.531 295.606 161.756 294.402 163.161C293.198 164.558 291.381 165.275 288.952 165.311H288.565V163.634H288.984C290.625 163.605 291.887 163.179 292.768 162.355C293.649 161.523 294.13 160.212 294.208 158.421ZM291.145 158.421C291.811 158.421 292.424 158.216 292.983 157.808C293.549 157.399 293.961 156.894 294.219 156.292V155.497C294.219 154.193 293.936 153.132 293.37 152.315C292.804 151.498 292.087 151.09 291.22 151.09C290.346 151.09 289.644 151.426 289.113 152.1C288.583 152.766 288.318 153.648 288.318 154.744C288.318 155.812 288.572 156.693 289.081 157.389C289.597 158.077 290.285 158.421 291.145 158.421ZM298.777 152.659C298.777 151.72 299.074 150.946 299.669 150.337C300.271 149.728 301.041 149.423 301.98 149.423C302.933 149.423 303.703 149.732 304.291 150.348C304.886 150.957 305.183 151.749 305.183 152.723V153.487C305.183 154.433 304.882 155.207 304.28 155.808C303.686 156.403 302.926 156.701 302.002 156.701C301.07 156.701 300.3 156.403 299.69 155.808C299.081 155.207 298.777 154.408 298.777 153.411V152.659ZM300.26 153.487C300.26 154.046 300.418 154.508 300.733 154.873C301.048 155.232 301.471 155.411 302.002 155.411C302.51 155.411 302.919 155.235 303.227 154.884C303.542 154.533 303.7 154.053 303.7 153.444V152.659C303.7 152.1 303.546 151.638 303.238 151.272C302.93 150.907 302.51 150.724 301.98 150.724C301.45 150.724 301.031 150.907 300.722 151.272C300.414 151.638 300.26 152.114 300.26 152.702V153.487ZM306.398 161.463C306.398 160.524 306.695 159.753 307.29 159.151C307.892 158.542 308.662 158.238 309.601 158.238C310.54 158.238 311.31 158.539 311.912 159.141C312.514 159.743 312.815 160.542 312.815 161.538V162.301C312.815 163.24 312.514 164.014 311.912 164.623C311.317 165.225 310.554 165.526 309.623 165.526C308.691 165.526 307.921 165.228 307.312 164.634C306.703 164.032 306.398 163.233 306.398 162.236V161.463ZM307.881 162.301C307.881 162.867 308.039 163.333 308.354 163.698C308.67 164.057 309.092 164.236 309.623 164.236C310.139 164.236 310.551 164.06 310.859 163.709C311.167 163.351 311.321 162.867 311.321 162.258V161.463C311.321 160.896 311.163 160.434 310.848 160.076C310.54 159.718 310.124 159.538 309.601 159.538C309.092 159.538 308.677 159.718 308.354 160.076C308.039 160.427 307.881 160.904 307.881 161.506V162.301ZM302.453 164.118L301.324 163.408L308.967 151.176L310.096 151.885L302.453 164.118Z" fill="#0088F0"/>
<path d="M273.372 178.838C273.372 178.318 273.473 177.85 273.676 177.434C273.882 177.019 274.167 176.698 274.53 176.472C274.896 176.247 275.313 176.134 275.781 176.134C276.504 176.134 277.088 176.384 277.533 176.885C277.981 177.385 278.205 178.051 278.205 178.882V178.946C278.205 179.463 278.105 179.927 277.906 180.339C277.71 180.748 277.427 181.067 277.057 181.296C276.691 181.525 276.269 181.64 275.791 181.64C275.071 181.64 274.487 181.39 274.039 180.889C273.594 180.388 273.372 179.726 273.372 178.902V178.838ZM274.284 178.946C274.284 179.535 274.42 180.007 274.692 180.364C274.966 180.721 275.333 180.899 275.791 180.899C276.252 180.899 276.619 180.719 276.89 180.359C277.162 179.996 277.297 179.489 277.297 178.838C277.297 178.255 277.158 177.784 276.88 177.424C276.605 177.061 276.239 176.88 275.781 176.88C275.333 176.88 274.971 177.058 274.697 177.415C274.422 177.771 274.284 178.282 274.284 178.946ZM283.829 178.946C283.829 179.754 283.644 180.405 283.274 180.899C282.905 181.393 282.404 181.64 281.773 181.64C281.128 181.64 280.621 181.435 280.252 181.026V183.583H279.344V176.232H280.173L280.217 176.821C280.587 176.363 281.1 176.134 281.758 176.134C282.396 176.134 282.9 176.374 283.269 176.855C283.642 177.336 283.829 178.005 283.829 178.862V178.946ZM282.921 178.843C282.921 178.244 282.793 177.771 282.538 177.424C282.283 177.078 281.933 176.904 281.488 176.904C280.939 176.904 280.526 177.148 280.252 177.636V180.173C280.523 180.657 280.939 180.899 281.498 180.899C281.933 180.899 282.278 180.727 282.533 180.384C282.792 180.037 282.921 179.523 282.921 178.843ZM286.219 174.946V176.232H287.21V176.934H286.219V180.227C286.219 180.439 286.263 180.599 286.351 180.707C286.44 180.812 286.59 180.864 286.803 180.864C286.907 180.864 287.051 180.845 287.235 180.806V181.542C286.996 181.607 286.763 181.64 286.538 181.64C286.132 181.64 285.826 181.517 285.62 181.272C285.414 181.026 285.311 180.678 285.311 180.227V176.934H284.344V176.232H285.311V174.946H286.219ZM289.261 181.542H288.353V176.232H289.261V181.542ZM288.28 174.824C288.28 174.676 288.324 174.552 288.412 174.451C288.504 174.349 288.638 174.299 288.815 174.299C288.991 174.299 289.125 174.349 289.217 174.451C289.309 174.552 289.354 174.676 289.354 174.824C289.354 174.971 289.309 175.094 289.217 175.192C289.125 175.29 288.991 175.339 288.815 175.339C288.638 175.339 288.504 175.29 288.412 175.192C288.324 175.094 288.28 174.971 288.28 174.824ZM290.478 178.838C290.478 178.318 290.58 177.85 290.782 177.434C290.989 177.019 291.273 176.698 291.636 176.472C292.003 176.247 292.42 176.134 292.888 176.134C293.611 176.134 294.195 176.384 294.64 176.885C295.088 177.385 295.312 178.051 295.312 178.882V178.946C295.312 179.463 295.212 179.927 295.012 180.339C294.816 180.748 294.533 181.067 294.164 181.296C293.797 181.525 293.375 181.64 292.897 181.64C292.178 181.64 291.594 181.39 291.146 180.889C290.701 180.388 290.478 179.726 290.478 178.902V178.838ZM291.391 178.946C291.391 179.535 291.527 180.007 291.798 180.364C292.073 180.721 292.439 180.899 292.897 180.899C293.359 180.899 293.725 180.719 293.997 180.359C294.268 179.996 294.404 179.489 294.404 178.838C294.404 178.255 294.265 177.784 293.987 177.424C293.712 177.061 293.346 176.88 292.888 176.88C292.439 176.88 292.078 177.058 291.803 177.415C291.528 177.771 291.391 178.282 291.391 178.946ZM297.309 176.232L297.339 176.899C297.744 176.389 298.274 176.134 298.928 176.134C300.051 176.134 300.617 176.767 300.626 178.033V181.542H299.719V178.028C299.715 177.645 299.627 177.362 299.454 177.179C299.283 176.996 299.017 176.904 298.654 176.904C298.359 176.904 298.101 176.983 297.878 177.14C297.656 177.297 297.482 177.503 297.358 177.758V181.542H296.45V176.232H297.309ZM309.077 181.542H304.395V180.889L306.868 178.141C307.235 177.725 307.487 177.389 307.624 177.13C307.765 176.868 307.835 176.598 307.835 176.32C307.835 175.947 307.722 175.642 307.496 175.403C307.271 175.164 306.97 175.044 306.594 175.044C306.142 175.044 305.79 175.174 305.538 175.432C305.29 175.687 305.166 176.044 305.166 176.502H304.258C304.258 175.844 304.469 175.313 304.891 174.907C305.316 174.501 305.884 174.299 306.594 174.299C307.258 174.299 307.783 174.474 308.169 174.824C308.555 175.17 308.748 175.633 308.748 176.212C308.748 176.916 308.3 177.753 307.403 178.725L305.489 180.801H309.077V181.542Z" fill="#8794BA"/>
<path d="M136.893 52.475H136.284V48.4413L135.064 48.8895V48.3398L136.798 47.6888H136.893V52.475ZM141.555 48.9549C141.555 49.1926 141.492 49.4042 141.365 49.5896C141.241 49.7749 141.072 49.92 140.858 50.0247C141.107 50.1315 141.303 50.2875 141.447 50.4925C141.593 50.6975 141.666 50.9298 141.666 51.1893C141.666 51.6015 141.526 51.9298 141.247 52.174C140.97 52.4183 140.605 52.5404 140.151 52.5404C139.693 52.5404 139.326 52.4183 139.049 52.174C138.774 51.9276 138.637 51.5993 138.637 51.1893C138.637 50.932 138.706 50.6997 138.846 50.4925C138.988 50.2853 139.183 50.1283 139.432 50.0214C139.22 49.9167 139.053 49.7717 138.931 49.5863C138.809 49.4009 138.748 49.1904 138.748 48.9549C138.748 48.5536 138.877 48.2352 139.134 47.9996C139.391 47.7641 139.73 47.6463 140.151 47.6463C140.57 47.6463 140.908 47.7641 141.165 47.9996C141.425 48.2352 141.555 48.5536 141.555 48.9549ZM141.061 51.1762C141.061 50.9101 140.976 50.6931 140.806 50.5252C140.638 50.3573 140.417 50.2733 140.145 50.2733C139.872 50.2733 139.653 50.3562 139.487 50.5219C139.324 50.6877 139.242 50.9058 139.242 51.1762C139.242 51.4467 139.321 51.6593 139.481 51.8142C139.642 51.969 139.866 52.0464 140.151 52.0464C140.435 52.0464 140.657 51.969 140.819 51.8142C140.98 51.6571 141.061 51.4445 141.061 51.1762ZM140.151 48.1436C139.914 48.1436 139.721 48.2177 139.572 48.366C139.426 48.5121 139.353 48.7117 139.353 48.9647C139.353 49.2068 139.425 49.4031 139.569 49.5536C139.715 49.7019 139.909 49.776 140.151 49.776C140.393 49.776 140.586 49.7019 140.73 49.5536C140.876 49.4031 140.95 49.2068 140.95 48.9647C140.95 48.7226 140.874 48.5252 140.724 48.3726C140.573 48.2199 140.383 48.1436 140.151 48.1436ZM143.75 50.6986H142.153V50.2046H143.75V50.6986ZM147.401 52.475H144.28V52.0399L145.929 50.2079C146.173 49.9309 146.341 49.7062 146.433 49.5339C146.526 49.3595 146.573 49.1795 146.573 48.9941C146.573 48.7455 146.498 48.5416 146.348 48.3824C146.197 48.2232 145.996 48.1436 145.746 48.1436C145.445 48.1436 145.21 48.2297 145.042 48.402C144.876 48.5721 144.794 48.8099 144.794 49.1152H144.188C144.188 48.6768 144.329 48.3224 144.61 48.052C144.894 47.7815 145.272 47.6463 145.746 47.6463C146.188 47.6463 146.538 47.763 146.796 47.9963C147.053 48.2275 147.182 48.5361 147.182 48.9222C147.182 49.3911 146.883 49.9494 146.285 50.5972L145.009 51.981H147.401V52.475ZM150.597 50.8753H151.258V51.3692H150.597V52.475H149.989V51.3692H147.82V51.0127L149.953 47.7117H150.597V50.8753ZM148.507 50.8753H149.989V48.5394L149.917 48.6703L148.507 50.8753Z" fill="#8794BA"/>
<path d="M216.75 96.025H213.629V95.5899L215.278 93.7579C215.522 93.4809 215.69 93.2562 215.782 93.0839C215.875 92.9095 215.922 92.7295 215.922 92.5441C215.922 92.2955 215.847 92.0916 215.697 91.9324C215.546 91.7732 215.345 91.6935 215.095 91.6935C214.794 91.6935 214.559 91.7797 214.391 91.952C214.225 92.1221 214.143 92.3598 214.143 92.6652H213.537C213.537 92.2268 213.678 91.8724 213.959 91.6019C214.243 91.3315 214.621 91.1963 215.095 91.1963C215.537 91.1963 215.887 91.313 216.145 91.5463C216.402 91.7775 216.531 92.0861 216.531 92.4722C216.531 92.9411 216.232 93.4994 215.634 94.1472L214.358 95.531H216.75V96.025ZM217.669 93.6368L217.911 91.2617H220.352V91.8211H218.425L218.281 93.1199C218.514 92.9825 218.779 92.9138 219.076 92.9138C219.51 92.9138 219.855 93.0578 220.11 93.3456C220.365 93.6314 220.493 94.0185 220.493 94.507C220.493 94.9977 220.359 95.3849 220.093 95.6684C219.83 95.9497 219.46 96.0904 218.984 96.0904C218.563 96.0904 218.22 95.9737 217.954 95.7404C217.688 95.507 217.536 95.1842 217.499 94.772H218.072C218.109 95.0446 218.206 95.2507 218.363 95.3903C218.52 95.5277 218.727 95.5964 218.984 95.5964C219.266 95.5964 219.486 95.5005 219.645 95.3085C219.807 95.1166 219.887 94.8516 219.887 94.5136C219.887 94.1951 219.8 93.94 219.626 93.748C219.453 93.5539 219.223 93.4569 218.935 93.4569C218.671 93.4569 218.464 93.5147 218.314 93.6303L218.153 93.7611L217.669 93.6368ZM222.475 94.2486H220.879V93.7546H222.475V94.2486ZM223.885 93.3489H224.34C224.626 93.3446 224.85 93.2693 225.014 93.1232C225.177 92.9771 225.259 92.7797 225.259 92.531C225.259 91.9727 224.981 91.6935 224.425 91.6935C224.163 91.6935 223.954 91.7688 223.797 91.9193C223.642 92.0676 223.564 92.265 223.564 92.5114H222.959C222.959 92.1341 223.097 91.8211 223.371 91.5725C223.648 91.3217 224 91.1963 224.425 91.1963C224.874 91.1963 225.226 91.3151 225.482 91.5529C225.737 91.7906 225.864 92.121 225.864 92.5441C225.864 92.7513 225.797 92.952 225.661 93.1461C225.528 93.3402 225.346 93.4852 225.115 93.5812C225.377 93.6641 225.579 93.8015 225.72 93.9934C225.864 94.1853 225.936 94.4198 225.936 94.6968C225.936 95.1242 225.797 95.4634 225.518 95.7142C225.238 95.965 224.875 96.0904 224.428 96.0904C223.981 96.0904 223.617 95.9694 223.335 95.7273C223.056 95.4852 222.917 95.1657 222.917 94.7687H223.525C223.525 95.0196 223.607 95.2202 223.771 95.3707C223.934 95.5212 224.153 95.5964 224.428 95.5964C224.72 95.5964 224.944 95.5201 225.099 95.3674C225.254 95.2148 225.331 94.9956 225.331 94.7099C225.331 94.4329 225.246 94.2202 225.076 94.0719C224.906 93.9236 224.66 93.8473 224.34 93.8429H223.885V93.3489ZM229.322 94.4252H229.983V94.9192H229.322V96.025H228.714V94.9192H226.545V94.5626L228.678 91.2617H229.322V94.4252ZM227.232 94.4252H228.714V92.0894L228.642 92.2203L227.232 94.4252Z" fill="#8794BA"/>
<path d="M214.509 166.491H214.964C215.249 166.486 215.474 166.411 215.638 166.265C215.801 166.119 215.883 165.921 215.883 165.673C215.883 165.114 215.605 164.835 215.049 164.835C214.787 164.835 214.578 164.91 214.421 165.061C214.266 165.209 214.188 165.407 214.188 165.653H213.583C213.583 165.276 213.721 164.963 213.995 164.714C214.272 164.463 214.623 164.338 215.049 164.338C215.498 164.338 215.85 164.457 216.105 164.695C216.361 164.932 216.488 165.263 216.488 165.686C216.488 165.893 216.421 166.094 216.285 166.288C216.152 166.482 215.97 166.627 215.739 166.723C216.001 166.806 216.203 166.943 216.344 167.135C216.488 167.327 216.56 167.561 216.56 167.838C216.56 168.266 216.421 168.605 216.141 168.856C215.862 169.107 215.499 169.232 215.052 169.232C214.605 169.232 214.241 169.111 213.959 168.869C213.68 168.627 213.541 168.307 213.541 167.91H214.149C214.149 168.161 214.231 168.362 214.394 168.512C214.558 168.663 214.777 168.738 215.052 168.738C215.344 168.738 215.568 168.662 215.723 168.509C215.878 168.356 215.955 168.137 215.955 167.852C215.955 167.575 215.87 167.362 215.7 167.214C215.53 167.065 215.284 166.989 214.964 166.985H214.509V166.491ZM217.669 166.779L217.911 164.403H220.352V164.963H218.425L218.281 166.262C218.514 166.124 218.779 166.056 219.076 166.056C219.51 166.056 219.855 166.199 220.11 166.487C220.365 166.773 220.493 167.16 220.493 167.649C220.493 168.139 220.359 168.527 220.093 168.81C219.83 169.091 219.46 169.232 218.984 169.232C218.563 169.232 218.22 169.115 217.954 168.882C217.688 168.649 217.536 168.326 217.499 167.914H218.072C218.109 168.186 218.206 168.392 218.363 168.532C218.52 168.669 218.727 168.738 218.984 168.738C219.266 168.738 219.486 168.642 219.645 168.45C219.807 168.258 219.887 167.993 219.887 167.655C219.887 167.337 219.8 167.082 219.626 166.89C219.453 166.696 219.223 166.599 218.935 166.599C218.671 166.599 218.464 166.656 218.314 166.772L218.153 166.903L217.669 166.779ZM222.475 167.39H220.879V166.896H222.475V167.39ZM225.56 167.567H226.221V168.061H225.56V169.167H224.952V168.061H222.783V167.704L224.916 164.403H225.56V167.567ZM223.47 167.567H224.952V165.231L224.88 165.362L223.47 167.567ZM229.322 167.567H229.983V168.061H229.322V169.167H228.714V168.061H226.545V167.704L228.678 164.403H229.322V167.567ZM227.232 167.567H228.714V165.231L228.642 165.362L227.232 167.567Z" fill="#8794BA"/>
<path d="M137.459 215.025H138.12V215.519H137.459V216.625H136.85V215.519H134.681V215.163L136.814 211.862H137.459V215.025ZM135.368 215.025H136.85V212.689L136.778 212.82L135.368 215.025ZM138.944 214.237L139.186 211.862H141.627V212.421H139.7L139.556 213.72C139.789 213.583 140.054 213.514 140.351 213.514C140.785 213.514 141.129 213.658 141.385 213.946C141.64 214.231 141.767 214.618 141.767 215.107C141.767 215.598 141.634 215.985 141.368 216.268C141.104 216.55 140.735 216.69 140.259 216.69C139.838 216.69 139.495 216.574 139.229 216.34C138.963 216.107 138.811 215.784 138.774 215.372H139.347C139.384 215.645 139.481 215.851 139.638 215.99C139.795 216.128 140.002 216.196 140.259 216.196C140.541 216.196 140.761 216.1 140.92 215.909C141.082 215.717 141.162 215.452 141.162 215.114C141.162 214.795 141.075 214.54 140.9 214.348C140.728 214.154 140.498 214.057 140.21 214.057C139.946 214.057 139.739 214.115 139.589 214.23L139.428 214.361L138.944 214.237ZM143.75 214.849H142.153V214.355H143.75V214.849ZM144.558 214.237L144.8 211.862H147.241V212.421H145.314L145.17 213.72C145.403 213.583 145.668 213.514 145.965 213.514C146.399 213.514 146.743 213.658 146.999 213.946C147.254 214.231 147.381 214.618 147.381 215.107C147.381 215.598 147.248 215.985 146.982 216.268C146.718 216.55 146.349 216.69 145.873 216.69C145.452 216.69 145.109 216.574 144.843 216.34C144.577 216.107 144.425 215.784 144.388 215.372H144.96C144.997 215.645 145.095 215.851 145.252 215.99C145.409 216.128 145.616 216.196 145.873 216.196C146.154 216.196 146.375 216.1 146.534 215.909C146.695 215.717 146.776 215.452 146.776 215.114C146.776 214.795 146.689 214.54 146.514 214.348C146.342 214.154 146.112 214.057 145.824 214.057C145.56 214.057 145.353 214.115 145.202 214.23L145.042 214.361L144.558 214.237ZM150.597 215.025H151.258V215.519H150.597V216.625H149.989V215.519H147.82V215.163L149.953 211.862H150.597V215.025ZM148.507 215.025H149.989V212.689L149.917 212.82L148.507 215.025Z" fill="#8794BA"/>
<path d="M56.4571 166.779L56.6992 164.403H59.1397V164.963H57.2128L57.0688 166.262C57.3022 166.124 57.5672 166.056 57.8638 166.056C58.2978 166.056 58.6424 166.199 58.8976 166.487C59.1528 166.773 59.2804 167.16 59.2804 167.649C59.2804 168.139 59.1473 168.527 58.8813 168.81C58.6174 169.091 58.2477 169.232 57.7722 169.232C57.3513 169.232 57.0078 169.115 56.7417 168.882C56.4756 168.649 56.324 168.326 56.287 167.914H56.8595C56.8965 168.186 56.9936 168.392 57.1506 168.532C57.3077 168.669 57.5149 168.738 57.7722 168.738C58.0536 168.738 58.2738 168.642 58.4331 168.45C58.5944 168.258 58.6751 167.993 58.6751 167.655C58.6751 167.337 58.5879 167.082 58.4134 166.89C58.2411 166.696 58.011 166.599 57.7231 166.599C57.4592 166.599 57.2521 166.656 57.1016 166.772L56.9413 166.903L56.4571 166.779ZM60.2193 166.779L60.4614 164.403H62.9019V164.963H60.975L60.8311 166.262C61.0644 166.124 61.3294 166.056 61.626 166.056C62.06 166.056 62.4046 166.199 62.6598 166.487C62.915 166.773 63.0426 167.16 63.0426 167.649C63.0426 168.139 62.9095 168.527 62.6435 168.81C62.3796 169.091 62.0099 169.232 61.5344 169.232C61.1135 169.232 60.77 169.115 60.5039 168.882C60.2378 168.649 60.0862 168.326 60.0492 167.914H60.6217C60.6588 168.186 60.7558 168.392 60.9128 168.532C61.0699 168.669 61.2771 168.738 61.5344 168.738C61.8158 168.738 62.0361 168.642 62.1953 168.45C62.3567 168.258 62.4374 167.993 62.4374 167.655C62.4374 167.337 62.3501 167.082 62.1756 166.89C62.0033 166.696 61.7732 166.599 61.4854 166.599C61.2215 166.599 61.0143 166.656 60.8638 166.772L60.7035 166.903L60.2193 166.779ZM65.0251 167.39H63.4286V166.896H65.0251V167.39ZM67.9302 164.4V164.914H67.8189C67.3479 164.922 66.9727 165.062 66.6936 165.333C66.4144 165.603 66.253 165.984 66.2094 166.474C66.4602 166.186 66.8026 166.042 67.2366 166.042C67.651 166.042 67.9814 166.189 68.2279 166.481C68.4765 166.773 68.6008 167.15 68.6008 167.613C68.6008 168.103 68.4667 168.496 68.1984 168.79C67.9324 169.085 67.5747 169.232 67.1254 169.232C66.6696 169.232 66.2999 169.058 66.0164 168.709C65.7328 168.358 65.5911 167.906 65.5911 167.354V167.122C65.5911 166.245 65.7775 165.576 66.1505 165.113C66.5256 164.649 67.0829 164.411 67.8222 164.4H67.9302ZM67.1352 166.546C66.928 166.546 66.7372 166.608 66.5627 166.733C66.3882 166.857 66.2672 167.013 66.1996 167.201V167.423C66.1996 167.816 66.2879 168.132 66.4646 168.372C66.6412 168.612 66.8615 168.732 67.1254 168.732C67.398 168.732 67.6118 168.631 67.7666 168.431C67.9236 168.23 68.0021 167.967 68.0021 167.642C68.0021 167.315 67.9225 167.051 67.7633 166.85C67.6063 166.648 67.3969 166.546 67.1352 166.546ZM71.8723 167.567H72.5332V168.061H71.8723V169.167H71.2638V168.061H69.0948V167.704L71.2278 164.403H71.8723V167.567ZM69.7818 167.567H71.2638V165.231L71.1918 165.362L69.7818 167.567Z" fill="#8794BA"/>
<path d="M60.6329 91.2584V91.7721H60.5217C60.0506 91.7808 59.6755 91.9204 59.3963 92.1908C59.1171 92.4613 58.9557 92.8418 58.9121 93.3326C59.1629 93.0447 59.5053 92.9007 59.9394 92.9007C60.3537 92.9007 60.6842 93.0469 60.9306 93.3391C61.1792 93.6314 61.3036 94.0087 61.3036 94.471C61.3036 94.9618 61.1694 95.3543 60.9012 95.6488C60.6351 95.9432 60.2774 96.0904 59.8281 96.0904C59.3723 96.0904 59.0026 95.9159 58.7191 95.567C58.4356 95.2158 58.2938 94.7644 58.2938 94.2126V93.9803C58.2938 93.1036 58.4803 92.434 58.8532 91.9716C59.2284 91.5071 59.7856 91.2693 60.525 91.2584H60.6329ZM59.8379 93.4045C59.6307 93.4045 59.4399 93.4667 59.2654 93.591C59.091 93.7153 58.9699 93.8713 58.9023 94.0588V94.2813C58.9023 94.6739 58.9906 94.9901 59.1673 95.23C59.3439 95.4699 59.5642 95.5899 59.8281 95.5899C60.1007 95.5899 60.3145 95.4896 60.4693 95.2889C60.6264 95.0883 60.7049 94.8254 60.7049 94.5005C60.7049 94.1733 60.6253 93.9094 60.4661 93.7088C60.309 93.506 60.0997 93.4045 59.8379 93.4045ZM62.2981 93.6368L62.5402 91.2617H64.9807V91.8211H63.0538L62.9099 93.1199C63.1432 92.9825 63.4082 92.9138 63.7048 92.9138C64.1389 92.9138 64.4834 93.0578 64.7386 93.3456C64.9938 93.6314 65.1214 94.0185 65.1214 94.507C65.1214 94.9977 64.9883 95.3849 64.7223 95.6684C64.4584 95.9497 64.0887 96.0904 63.6132 96.0904C63.1923 96.0904 62.8488 95.9737 62.5827 95.7404C62.3166 95.507 62.1651 95.1842 62.128 94.772H62.7005C62.7376 95.0446 62.8346 95.2507 62.9917 95.3903C63.1487 95.5277 63.3559 95.5964 63.6132 95.5964C63.8946 95.5964 64.1149 95.5005 64.2741 95.3085C64.4355 95.1166 64.5162 94.8516 64.5162 94.5136C64.5162 94.1951 64.4289 93.94 64.2544 93.748C64.0821 93.5539 63.8521 93.4569 63.5642 93.4569C63.3003 93.4569 63.0931 93.5147 62.9426 93.6303L62.7823 93.7611L62.2981 93.6368ZM67.5783 93.47H68.9065V94.0425H67.5783V95.5474H66.9698V94.0425H65.6416V93.47H66.9698V92.0796H67.5783V93.47Z" fill="#8794BA"/>
<defs>
<filter id="filter0_d_535_2508" x="-15" y="0" width="405" height="298.917" filterUnits="userSpaceOnUse" color-interpolation-filters="sRGB">
<feFlood flood-opacity="0" result="BackgroundImageFix"/>
<feColorMatrix in="SourceAlpha" type="matrix" values="0 0 0 0 0 0 0 0 0 0 0 0 0 0 0 0 0 0 127 0" result="hardAlpha"/>
<feMorphology radius="15" operator="erode" in="SourceAlpha" result="effect1_dropShadow_535_2508"/>
<feOffset dy="18"/>
<feGaussianBlur stdDeviation="25"/>
<feColorMatrix type="matrix" values="0 0 0 0 0.0996452 0 0 0 0 0.164326 0 0 0 0 0.350284 0 0 0 0.2 0"/>
<feBlend mode="normal" in2="BackgroundImageFix" result="effect1_dropShadow_535_2508"/>
<feBlend mode="normal" in="SourceGraphic" in2="effect1_dropShadow_535_2508" result="shape"/>
</filter>
</defs>
</svg>
