<svg width="375" height="300" viewBox="0 0 375 300" fill="none" xmlns="http://www.w3.org/2000/svg">
<g filter="url(#filter0_d_535_2558)">
<rect x="19.939" y="17.8333" width="335.122" height="229" rx="16.7561" fill="white"/>
</g>
<rect x="59.0366" y="74.804" width="36.8634" height="29.0439" fill="white"/>
<rect x="95.8999" y="74.804" width="36.8634" height="29.0439" fill="white"/>
<path d="M113.442 91.2991H112.833V87.2639L111.613 87.7122V87.1624L113.347 86.5111H113.442V91.2991Z" fill="#172755"/>
<rect x="132.763" y="74.804" width="36.8634" height="29.0439" fill="white"/>
<path d="M151.438 91.2991H148.316V90.8638L149.965 89.0311C150.21 88.754 150.378 88.5293 150.469 88.3569C150.563 88.1824 150.61 88.0024 150.61 87.8169C150.61 87.5682 150.535 87.3642 150.384 87.205C150.234 87.0457 150.033 86.966 149.782 86.966C149.481 86.966 149.246 87.0522 149.078 87.2246C148.912 87.3948 148.83 87.6326 148.83 87.938H148.224C148.224 87.4995 148.365 87.145 148.646 86.8744C148.93 86.6039 149.308 86.4686 149.782 86.4686C150.225 86.4686 150.575 86.5853 150.832 86.8188C151.09 87.05 151.219 87.3588 151.219 87.7449C151.219 88.214 150.92 88.7726 150.322 89.4206L149.046 90.8049H151.438V91.2991Z" fill="#172755"/>
<rect x="169.627" y="74.804" width="36.8634" height="29.0439" fill="white"/>
<path d="M186.059 88.622H186.514C186.8 88.6177 187.025 88.5424 187.188 88.3962C187.352 88.25 187.434 88.0526 187.434 87.8039C187.434 87.2453 187.155 86.966 186.599 86.966C186.337 86.966 186.128 87.0413 185.971 87.1919C185.816 87.3402 185.738 87.5377 185.738 87.7842H185.133C185.133 87.4068 185.27 87.0937 185.545 86.845C185.822 86.5941 186.174 86.4686 186.599 86.4686C187.049 86.4686 187.401 86.5875 187.656 86.8253C187.911 87.0631 188.039 87.3937 188.039 87.8169C188.039 88.0242 187.971 88.2249 187.836 88.4191C187.703 88.6133 187.521 88.7584 187.29 88.8544C187.551 88.9373 187.753 89.0747 187.895 89.2667C188.039 89.4587 188.111 89.6933 188.111 89.9704C188.111 90.398 187.971 90.7373 187.692 90.9882C187.413 91.2391 187.05 91.3645 186.602 91.3645C186.155 91.3645 185.791 91.2434 185.509 91.0013C185.23 90.7591 185.09 90.4394 185.09 90.0424H185.699C185.699 90.2933 185.781 90.494 185.945 90.6445C186.108 90.7951 186.327 90.8704 186.602 90.8704C186.895 90.8704 187.118 90.794 187.273 90.6413C187.428 90.4885 187.506 90.2693 187.506 89.9835C187.506 89.7064 187.421 89.4936 187.25 89.3453C187.08 89.1969 186.835 89.1206 186.514 89.1162H186.059V88.622Z" fill="#172755"/>
<rect x="206.49" y="74.804" width="36.8634" height="29.0439" fill="white"/>
<path d="M224.598 89.6987H225.26V90.1929H224.598V91.2991H223.99V90.1929H221.82V89.8362L223.954 86.5341H224.598V89.6987ZM222.507 89.6987H223.99V87.362L223.918 87.493L222.507 89.6987Z" fill="#172755"/>
<rect x="243.354" y="74.804" width="36.8634" height="29.0439" fill="white"/>
<path d="M259.184 88.91L259.426 86.5341H261.868V87.0937H259.94L259.796 88.3929C260.029 88.2555 260.295 88.1868 260.591 88.1868C261.025 88.1868 261.37 88.3308 261.625 88.6188C261.881 88.9046 262.008 89.2918 262.008 89.7806C262.008 90.2715 261.875 90.6587 261.609 90.9424C261.345 91.2238 260.975 91.3645 260.5 91.3645C260.079 91.3645 259.735 91.2478 259.469 91.0143C259.203 90.7809 259.051 90.458 259.014 90.0456H259.587C259.624 90.3184 259.721 90.5245 259.878 90.6642C260.035 90.8016 260.242 90.8704 260.5 90.8704C260.781 90.8704 261.001 90.7744 261.161 90.5824C261.322 90.3904 261.403 90.1253 261.403 89.7871C261.403 89.4686 261.316 89.2133 261.141 89.0213C260.969 88.8271 260.739 88.73 260.451 88.73C260.187 88.73 259.979 88.7878 259.829 88.9035L259.668 89.0344L259.184 88.91Z" fill="#172755"/>
<rect x="280.217" y="74.804" width="36.8634" height="29.0439" fill="white"/>
<path d="M298.146 86.5308V87.0446H298.034C297.563 87.0533 297.188 87.193 296.908 87.4635C296.629 87.734 296.468 88.1148 296.424 88.6057C296.675 88.3177 297.018 88.1737 297.452 88.1737C297.866 88.1737 298.197 88.3198 298.443 88.6122C298.692 88.9046 298.816 89.282 298.816 89.7446C298.816 90.2355 298.682 90.6282 298.414 90.9227C298.148 91.2173 297.79 91.3645 297.34 91.3645C296.884 91.3645 296.515 91.19 296.231 90.8409C295.947 90.4896 295.806 90.038 295.806 89.486V89.2537C295.806 88.3766 295.992 87.7068 296.365 87.2442C296.74 86.7795 297.298 86.5417 298.038 86.5308H298.146ZM297.35 88.6777C297.143 88.6777 296.952 88.7398 296.778 88.8642C296.603 88.9886 296.482 89.1446 296.414 89.3322V89.5547C296.414 89.9475 296.503 90.2638 296.679 90.5038C296.856 90.7438 297.076 90.8638 297.34 90.8638C297.613 90.8638 297.827 90.7634 297.982 90.5627C298.139 90.362 298.218 90.0991 298.218 89.774C298.218 89.4467 298.138 89.1827 297.979 88.982C297.822 88.7791 297.612 88.6777 297.35 88.6777Z" fill="#172755"/>
<rect x="59.0366" y="103.848" width="36.8634" height="29.0439" fill="white"/>
<path d="M77.665 115.918L75.6916 120.343H75.0567L77.0235 116.075H74.4447V115.578H77.665V115.918Z" fill="#172755"/>
<rect x="95.8999" y="103.848" width="36.8634" height="29.0439" fill="white"/>
<circle cx="114.052" cy="118.091" r="10.8915" fill="#0088F0"/>
<path d="M114.342 116.822C114.342 117.059 114.279 117.271 114.152 117.457C114.028 117.642 113.859 117.787 113.645 117.892C113.894 117.999 114.09 118.155 114.234 118.36C114.38 118.565 114.453 118.797 114.453 119.057C114.453 119.469 114.314 119.798 114.034 120.042C113.757 120.286 113.392 120.408 112.938 120.408C112.48 120.408 112.112 120.286 111.835 120.042C111.56 119.795 111.423 119.467 111.423 119.057C111.423 118.799 111.493 118.567 111.632 118.36C111.774 118.153 111.969 117.995 112.218 117.889C112.006 117.784 111.839 117.639 111.717 117.453C111.595 117.268 111.534 117.057 111.534 116.822C111.534 116.42 111.663 116.102 111.92 115.866C112.178 115.63 112.517 115.513 112.938 115.513C113.357 115.513 113.695 115.63 113.953 115.866C114.212 116.102 114.342 116.42 114.342 116.822ZM113.848 119.044C113.848 118.778 113.763 118.561 113.593 118.393C113.425 118.225 113.204 118.141 112.931 118.141C112.659 118.141 112.439 118.223 112.274 118.389C112.11 118.555 112.028 118.773 112.028 119.044C112.028 119.314 112.108 119.527 112.267 119.682C112.429 119.837 112.652 119.914 112.938 119.914C113.222 119.914 113.444 119.837 113.606 119.682C113.767 119.525 113.848 119.312 113.848 119.044ZM112.938 116.01C112.7 116.01 112.507 116.084 112.359 116.233C112.213 116.379 112.139 116.578 112.139 116.831C112.139 117.074 112.211 117.27 112.355 117.421C112.502 117.569 112.696 117.643 112.938 117.643C113.18 117.643 113.373 117.569 113.517 117.421C113.663 117.27 113.737 117.074 113.737 116.831C113.737 116.589 113.661 116.392 113.511 116.239C113.36 116.086 113.169 116.01 112.938 116.01Z" fill="#EEEEF7"/>
<rect x="132.763" y="103.848" width="36.8634" height="29.0439" fill="white"/>
<circle cx="150.916" cy="118.091" r="10.8915" fill="#0088F0"/>
<path d="M150.636 118.249C150.51 118.399 150.358 118.52 150.181 118.612C150.007 118.703 149.815 118.749 149.605 118.749C149.33 118.749 149.09 118.682 148.885 118.546C148.682 118.411 148.525 118.221 148.414 117.977C148.303 117.73 148.247 117.459 148.247 117.162C148.247 116.843 148.307 116.557 148.427 116.301C148.549 116.046 148.722 115.851 148.944 115.715C149.167 115.58 149.426 115.513 149.723 115.513C150.194 115.513 150.565 115.689 150.836 116.043C151.108 116.394 151.245 116.874 151.245 117.483V117.659C151.245 118.587 151.061 119.264 150.695 119.692C150.328 120.117 149.775 120.335 149.036 120.346H148.918V119.836H149.046C149.545 119.827 149.929 119.697 150.198 119.446C150.466 119.193 150.612 118.794 150.636 118.249ZM149.703 118.249C149.906 118.249 150.093 118.186 150.263 118.062C150.435 117.938 150.561 117.784 150.639 117.601V117.358C150.639 116.961 150.553 116.638 150.381 116.39C150.208 116.141 149.99 116.017 149.726 116.017C149.46 116.017 149.246 116.119 149.085 116.324C148.923 116.527 148.843 116.795 148.843 117.129C148.843 117.454 148.92 117.723 149.075 117.934C149.232 118.144 149.442 118.249 149.703 118.249Z" fill="#EEEEF7"/>
<rect x="169.627" y="103.848" width="36.8634" height="29.0439" fill="white"/>
<circle cx="187.779" cy="118.091" r="10.8915" fill="#0088F0"/>
<path d="M185.053 120.343H184.444V116.308L183.223 116.756V116.206L184.958 115.555H185.053V120.343ZM189.814 118.311C189.814 119.02 189.693 119.547 189.451 119.891C189.209 120.236 188.83 120.408 188.315 120.408C187.807 120.408 187.431 120.24 187.186 119.904C186.942 119.566 186.816 119.062 186.807 118.393V117.584C186.807 116.884 186.928 116.363 187.17 116.023C187.412 115.683 187.792 115.513 188.309 115.513C188.822 115.513 189.199 115.677 189.441 116.007C189.683 116.334 189.808 116.84 189.814 117.525V118.311ZM189.209 117.483C189.209 116.97 189.137 116.597 188.993 116.363C188.849 116.128 188.621 116.01 188.309 116.01C187.999 116.01 187.773 116.127 187.631 116.36C187.49 116.594 187.417 116.953 187.412 117.437V118.406C187.412 118.92 187.486 119.301 187.635 119.548C187.785 119.792 188.012 119.914 188.315 119.914C188.614 119.914 188.836 119.799 188.98 119.567C189.126 119.336 189.202 118.972 189.209 118.474V117.483Z" fill="#EEEEF7"/>
<rect x="206.49" y="103.848" width="36.8634" height="29.0439" fill="white"/>
<path d="M221.916 120.343H221.307V116.308L220.087 116.756V116.206L221.821 115.555H221.916V120.343ZM225.68 120.343H225.071V116.308L223.85 116.756V116.206L225.585 115.555H225.68V120.343Z" fill="#172755"/>
<rect x="243.354" y="103.848" width="36.8634" height="29.0439" fill="white"/>
<path d="M258.78 120.343H258.171V116.308L256.95 116.756V116.206L258.685 115.555H258.78V120.343ZM263.676 120.343H260.553V119.908L262.203 118.075C262.447 117.798 262.615 117.573 262.707 117.401C262.801 117.226 262.848 117.046 262.848 116.861C262.848 116.612 262.772 116.408 262.622 116.249C262.471 116.09 262.271 116.01 262.02 116.01C261.719 116.01 261.484 116.096 261.316 116.269C261.15 116.439 261.067 116.677 261.067 116.982H260.462C260.462 116.543 260.603 116.189 260.884 115.918C261.168 115.648 261.546 115.513 262.02 115.513C262.463 115.513 262.813 115.629 263.07 115.863C263.328 116.094 263.456 116.403 263.456 116.789C263.456 117.258 263.157 117.817 262.56 118.465L261.283 119.849H263.676V120.343Z" fill="#172755"/>
<rect x="280.217" y="103.848" width="36.8634" height="29.0439" fill="white"/>
<path d="M295.643 120.343H295.035V116.308L293.814 116.756V116.206L295.549 115.555H295.643V120.343ZM298.298 117.666H298.752C299.038 117.662 299.263 117.586 299.427 117.44C299.59 117.294 299.672 117.097 299.672 116.848C299.672 116.289 299.394 116.01 298.838 116.01C298.576 116.01 298.366 116.085 298.209 116.236C298.054 116.384 297.977 116.582 297.977 116.828H297.371C297.371 116.451 297.509 116.138 297.784 115.889C298.061 115.638 298.412 115.513 298.838 115.513C299.287 115.513 299.639 115.631 299.895 115.869C300.15 116.107 300.278 116.438 300.278 116.861C300.278 117.068 300.21 117.269 300.075 117.463C299.942 117.657 299.759 117.802 299.528 117.898C299.79 117.981 299.992 118.119 300.134 118.311C300.278 118.503 300.35 118.737 300.35 119.014C300.35 119.442 300.21 119.781 299.931 120.032C299.651 120.283 299.288 120.408 298.841 120.408C298.394 120.408 298.029 120.287 297.748 120.045C297.469 119.803 297.329 119.483 297.329 119.086H297.938C297.938 119.337 298.019 119.538 298.183 119.688C298.347 119.839 298.566 119.914 298.841 119.914C299.133 119.914 299.357 119.838 299.512 119.685C299.667 119.532 299.744 119.313 299.744 119.027C299.744 118.75 299.659 118.538 299.489 118.389C299.319 118.241 299.073 118.165 298.752 118.16H298.298V117.666Z" fill="#172755"/>
<rect x="59.0366" y="132.892" width="36.8634" height="29.0439" fill="white"/>
<path d="M74.4625 149.387H73.8538V145.352L72.6331 145.8V145.25L74.3676 144.599H74.4625V149.387ZM78.7923 147.787H79.4534V148.281H78.7923V149.387H78.1836V148.281H76.0138V147.924L78.1476 144.622H78.7923V147.787ZM76.701 147.787H78.1836V145.45L78.1116 145.581L76.701 147.787Z" fill="#172755"/>
<rect x="95.8999" y="132.892" width="36.8634" height="29.0439" fill="white"/>
<path d="M111.326 149.387H110.717V145.352L109.497 145.8V145.25L111.231 144.599H111.326V149.387ZM113.378 146.998L113.62 144.622H116.062V145.182H114.134L113.99 146.481C114.223 146.343 114.489 146.275 114.785 146.275C115.219 146.275 115.564 146.419 115.819 146.707C116.075 146.992 116.202 147.38 116.202 147.868C116.202 148.359 116.069 148.747 115.803 149.03C115.539 149.312 115.169 149.452 114.694 149.452C114.273 149.452 113.929 149.336 113.663 149.102C113.397 148.869 113.245 148.546 113.208 148.134H113.781C113.818 148.406 113.915 148.612 114.072 148.752C114.229 148.89 114.436 148.958 114.694 148.958C114.975 148.958 115.195 148.862 115.355 148.67C115.516 148.478 115.597 148.213 115.597 147.875C115.597 147.556 115.51 147.301 115.335 147.109C115.163 146.915 114.933 146.818 114.645 146.818C114.381 146.818 114.173 146.876 114.023 146.991L113.862 147.122L113.378 146.998Z" fill="#172755"/>
<rect x="132.763" y="132.892" width="36.8634" height="29.0439" fill="white"/>
<path d="M148.19 149.387H147.581V145.352L146.36 145.8V145.25L148.095 144.599H148.19V149.387ZM152.339 144.619V145.132H152.228C151.757 145.141 151.382 145.281 151.102 145.551C150.823 145.822 150.662 146.203 150.618 146.694C150.869 146.406 151.211 146.262 151.646 146.262C152.06 146.262 152.391 146.408 152.637 146.7C152.886 146.992 153.01 147.37 153.01 147.832C153.01 148.323 152.876 148.716 152.608 149.011C152.342 149.305 151.984 149.452 151.534 149.452C151.078 149.452 150.708 149.278 150.425 148.929C150.141 148.578 149.999 148.126 149.999 147.574V147.342C149.999 146.464 150.186 145.795 150.559 145.332C150.934 144.867 151.492 144.63 152.231 144.619H152.339ZM151.544 146.766C151.337 146.766 151.146 146.828 150.971 146.952C150.797 147.076 150.676 147.232 150.608 147.42V147.643C150.608 148.035 150.696 148.352 150.873 148.592C151.05 148.832 151.27 148.952 151.534 148.952C151.807 148.952 152.021 148.851 152.176 148.651C152.333 148.45 152.411 148.187 152.411 147.862C152.411 147.535 152.332 147.271 152.172 147.07C152.015 146.867 151.806 146.766 151.544 146.766Z" fill="#172755"/>
<rect x="169.627" y="132.892" width="36.8634" height="29.0439" fill="white"/>
<path d="M185.053 149.387H184.444V145.352L183.223 145.8V145.25L184.958 144.599H185.053V149.387ZM189.903 144.962L187.929 149.387H187.294L189.261 145.119H186.682V144.622H189.903V144.962Z" fill="#172755"/>
<rect x="206.49" y="132.892" width="36.8634" height="29.0439" fill="white"/>
<circle cx="224.643" cy="147.135" r="10.8915" fill="#EF2A82"/>
<path d="M221.916 149.387H221.307V145.352L220.087 145.8V145.25L221.821 144.599H221.916V149.387ZM226.58 145.866C226.58 146.103 226.516 146.315 226.39 146.5C226.266 146.686 226.096 146.831 225.883 146.936C226.131 147.043 226.328 147.199 226.472 147.404C226.618 147.609 226.691 147.841 226.691 148.101C226.691 148.513 226.551 148.842 226.272 149.086C225.995 149.33 225.63 149.452 225.176 149.452C224.718 149.452 224.35 149.33 224.073 149.086C223.798 148.839 223.66 148.511 223.66 148.101C223.66 147.843 223.73 147.611 223.87 147.404C224.012 147.196 224.207 147.039 224.456 146.932C224.244 146.828 224.077 146.683 223.955 146.497C223.833 146.312 223.772 146.101 223.772 145.866C223.772 145.464 223.9 145.146 224.158 144.91C224.415 144.674 224.755 144.556 225.176 144.556C225.595 144.556 225.933 144.674 226.19 144.91C226.45 145.146 226.58 145.464 226.58 145.866ZM226.086 148.088C226.086 147.822 226 147.604 225.83 147.436C225.662 147.268 225.442 147.184 225.169 147.184C224.896 147.184 224.677 147.267 224.511 147.433C224.348 147.599 224.266 147.817 224.266 148.088C224.266 148.358 224.346 148.571 224.505 148.726C224.666 148.881 224.89 148.958 225.176 148.958C225.459 148.958 225.682 148.881 225.843 148.726C226.005 148.569 226.086 148.356 226.086 148.088ZM225.176 145.054C224.938 145.054 224.745 145.128 224.596 145.276C224.45 145.423 224.377 145.622 224.377 145.875C224.377 146.118 224.449 146.314 224.593 146.464C224.739 146.613 224.934 146.687 225.176 146.687C225.418 146.687 225.611 146.613 225.755 146.464C225.901 146.314 225.974 146.118 225.974 145.875C225.974 145.633 225.899 145.436 225.748 145.283C225.598 145.13 225.407 145.054 225.176 145.054Z" fill="#EEEEF7"/>
<rect x="243.354" y="132.892" width="36.8634" height="29.0439" fill="white"/>
<path d="M258.78 149.387H258.171V145.352L256.95 145.8V145.25L258.685 144.599H258.78V149.387ZM262.874 147.292C262.747 147.443 262.596 147.564 262.419 147.656C262.244 147.747 262.052 147.793 261.843 147.793C261.568 147.793 261.328 147.726 261.123 147.59C260.92 147.455 260.763 147.265 260.652 147.021C260.54 146.774 260.485 146.503 260.485 146.206C260.485 145.887 260.545 145.6 260.665 145.345C260.787 145.09 260.959 144.895 261.182 144.759C261.404 144.624 261.664 144.556 261.961 144.556C262.432 144.556 262.803 144.733 263.073 145.087C263.346 145.438 263.483 145.918 263.483 146.527V146.703C263.483 147.631 263.299 148.308 262.933 148.736C262.566 149.161 262.013 149.379 261.273 149.39H261.156V148.88H261.283C261.783 148.871 262.167 148.741 262.435 148.49C262.704 148.237 262.85 147.838 262.874 147.292ZM261.941 147.292C262.144 147.292 262.331 147.23 262.501 147.106C262.673 146.982 262.799 146.828 262.877 146.644V146.402C262.877 146.005 262.791 145.682 262.619 145.434C262.446 145.185 262.228 145.06 261.964 145.06C261.698 145.06 261.484 145.163 261.323 145.368C261.161 145.571 261.08 145.839 261.08 146.173C261.08 146.498 261.158 146.767 261.313 146.978C261.47 147.188 261.679 147.292 261.941 147.292Z" fill="#172755"/>
<rect x="280.217" y="132.892" width="36.8634" height="29.0439" fill="white"/>
<path d="M296.776 149.387H293.654V148.952L295.303 147.119C295.547 146.842 295.715 146.617 295.807 146.445C295.901 146.27 295.948 146.09 295.948 145.905C295.948 145.656 295.873 145.452 295.722 145.293C295.571 145.134 295.371 145.054 295.12 145.054C294.819 145.054 294.584 145.14 294.416 145.312C294.25 145.483 294.167 145.72 294.167 146.026H293.562C293.562 145.587 293.703 145.233 293.984 144.962C294.268 144.692 294.646 144.556 295.12 144.556C295.563 144.556 295.913 144.673 296.17 144.907C296.428 145.138 296.557 145.447 296.557 145.833C296.557 146.302 296.258 146.86 295.66 147.508L294.383 148.893H296.776V149.387ZM300.405 147.355C300.405 148.064 300.284 148.591 300.042 148.935C299.8 149.28 299.421 149.452 298.906 149.452C298.398 149.452 298.022 149.284 297.777 148.948C297.533 148.61 297.406 148.106 297.398 147.436V146.628C297.398 145.928 297.519 145.407 297.761 145.067C298.003 144.727 298.383 144.556 298.9 144.556C299.412 144.556 299.79 144.721 300.032 145.051C300.274 145.378 300.399 145.884 300.405 146.569V147.355ZM299.8 146.527C299.8 146.014 299.728 145.641 299.584 145.407C299.44 145.172 299.212 145.054 298.9 145.054C298.59 145.054 298.364 145.171 298.222 145.404C298.08 145.638 298.007 145.996 298.003 146.481V147.45C298.003 147.964 298.077 148.345 298.226 148.592C298.376 148.836 298.603 148.958 298.906 148.958C299.205 148.958 299.427 148.843 299.571 148.611C299.717 148.38 299.793 148.016 299.8 147.518V146.527Z" fill="#172755"/>
<rect x="59.0366" y="161.936" width="36.8634" height="29.0439" fill="white"/>
<path d="M75.5949 178.431H72.4727V177.996L74.1222 176.163C74.3665 175.886 74.5345 175.661 74.6262 175.489C74.72 175.314 74.7669 175.134 74.7669 174.949C74.7669 174.7 74.6916 174.496 74.5411 174.337C74.3905 174.177 74.1898 174.098 73.9389 174.098C73.6378 174.098 73.4033 174.184 73.2353 174.356C73.0695 174.526 72.9866 174.764 72.9866 175.07H72.3811C72.3811 174.631 72.5218 174.277 72.8033 174.006C73.0869 173.736 73.4655 173.6 73.9389 173.6C74.3818 173.6 74.732 173.717 74.9894 173.95C75.2469 174.182 75.3756 174.49 75.3756 174.877C75.3756 175.346 75.0767 175.904 74.4789 176.552L73.2026 177.937H75.5949V178.431ZM78.2261 178.431H77.6174V174.396L76.3967 174.844V174.294L78.1312 173.643H78.2261V178.431Z" fill="#172755"/>
<rect x="95.8999" y="161.936" width="36.8634" height="29.0439" fill="white"/>
<path d="M112.458 178.431H109.336V177.996L110.986 176.163C111.23 175.886 111.398 175.661 111.49 175.489C111.584 175.314 111.63 175.134 111.63 174.949C111.63 174.7 111.555 174.496 111.405 174.337C111.254 174.177 111.053 174.098 110.802 174.098C110.501 174.098 110.267 174.184 110.099 174.356C109.933 174.526 109.85 174.764 109.85 175.07H109.245C109.245 174.631 109.385 174.277 109.667 174.006C109.95 173.736 110.329 173.6 110.802 173.6C111.245 173.6 111.596 173.717 111.853 173.95C112.11 174.182 112.239 174.49 112.239 174.877C112.239 175.346 111.94 175.904 111.342 176.552L110.066 177.937H112.458V178.431ZM116.222 178.431H113.1V177.996L114.749 176.163C114.994 175.886 115.162 175.661 115.253 175.489C115.347 175.314 115.394 175.134 115.394 174.949C115.394 174.7 115.319 174.496 115.168 174.337C115.018 174.177 114.817 174.098 114.566 174.098C114.265 174.098 114.03 174.184 113.862 174.356C113.697 174.526 113.614 174.764 113.614 175.07H113.008C113.008 174.631 113.149 174.277 113.43 174.006C113.714 173.736 114.093 173.6 114.566 173.6C115.009 173.6 115.359 173.717 115.617 173.95C115.874 174.182 116.003 174.49 116.003 174.877C116.003 175.346 115.704 175.904 115.106 176.552L113.83 177.937H116.222V178.431Z" fill="#172755"/>
<rect x="132.763" y="161.936" width="36.8634" height="29.0439" fill="white"/>
<path d="M149.322 178.431H146.2V177.996L147.849 176.163C148.094 175.886 148.262 175.661 148.353 175.489C148.447 175.314 148.494 175.134 148.494 174.949C148.494 174.7 148.419 174.496 148.268 174.337C148.118 174.177 147.917 174.098 147.666 174.098C147.365 174.098 147.13 174.184 146.962 174.356C146.797 174.526 146.714 174.764 146.714 175.07H146.108C146.108 174.631 146.249 174.277 146.53 174.006C146.814 173.736 147.193 173.6 147.666 173.6C148.109 173.6 148.459 173.717 148.716 173.95C148.974 174.182 149.103 174.49 149.103 174.877C149.103 175.346 148.804 175.904 148.206 176.552L146.93 177.937H149.322V178.431ZM150.844 175.754H151.299C151.584 175.749 151.809 175.674 151.973 175.528C152.136 175.382 152.218 175.184 152.218 174.936C152.218 174.377 151.94 174.098 151.384 174.098C151.122 174.098 150.912 174.173 150.755 174.324C150.6 174.472 150.523 174.669 150.523 174.916H149.918C149.918 174.538 150.055 174.225 150.33 173.977C150.607 173.726 150.958 173.6 151.384 173.6C151.833 173.6 152.186 173.719 152.441 173.957C152.696 174.195 152.824 174.525 152.824 174.949C152.824 175.156 152.756 175.357 152.621 175.551C152.488 175.745 152.306 175.89 152.074 175.986C152.336 176.069 152.538 176.206 152.68 176.398C152.824 176.59 152.896 176.825 152.896 177.102C152.896 177.53 152.756 177.869 152.477 178.12C152.198 178.371 151.834 178.496 151.387 178.496C150.94 178.496 150.575 178.375 150.294 178.133C150.015 177.891 149.875 177.571 149.875 177.174H150.484C150.484 177.425 150.566 177.626 150.729 177.776C150.893 177.927 151.112 178.002 151.387 178.002C151.679 178.002 151.903 177.926 152.058 177.773C152.213 177.62 152.29 177.401 152.29 177.115C152.29 176.838 152.205 176.625 152.035 176.477C151.865 176.329 151.619 176.252 151.299 176.248H150.844V175.754Z" fill="#172755"/>
<rect x="169.627" y="161.936" width="36.8634" height="29.0439" fill="white"/>
<path d="M186.185 178.431H183.063V177.996L184.712 176.163C184.957 175.886 185.125 175.661 185.216 175.489C185.31 175.314 185.357 175.134 185.357 174.949C185.357 174.7 185.282 174.496 185.131 174.337C184.981 174.177 184.78 174.098 184.529 174.098C184.228 174.098 183.993 174.184 183.825 174.356C183.66 174.526 183.577 174.764 183.577 175.07H182.971C182.971 174.631 183.112 174.277 183.393 174.006C183.677 173.736 184.056 173.6 184.529 173.6C184.972 173.6 185.322 173.717 185.58 173.95C185.837 174.182 185.966 174.49 185.966 174.877C185.966 175.346 185.667 175.904 185.069 176.552L183.793 177.937H186.185V178.431ZM189.382 176.83H190.043V177.325H189.382V178.431H188.774V177.325H186.604V176.968L188.738 173.666H189.382V176.83ZM187.291 176.83H188.774V174.494L188.702 174.625L187.291 176.83Z" fill="#172755"/>
<rect x="206.49" y="161.936" width="36.8634" height="29.0439" fill="white"/>
<path d="M223.048 178.431H219.926V177.996L221.576 176.163C221.82 175.886 221.988 175.661 222.08 175.489C222.174 175.314 222.221 175.134 222.221 174.949C222.221 174.7 222.145 174.496 221.995 174.337C221.844 174.177 221.643 174.098 221.393 174.098C221.091 174.098 220.857 174.184 220.689 174.356C220.523 174.526 220.44 174.764 220.44 175.07H219.835C219.835 174.631 219.975 174.277 220.257 174.006C220.541 173.736 220.919 173.6 221.393 173.6C221.835 173.6 222.186 173.717 222.443 173.95C222.701 174.182 222.829 174.49 222.829 174.877C222.829 175.346 222.53 175.904 221.933 176.552L220.656 177.937H223.048V178.431ZM223.968 176.042L224.21 173.666H226.652V174.225H224.724L224.58 175.525C224.814 175.387 225.079 175.318 225.375 175.318C225.81 175.318 226.154 175.462 226.41 175.75C226.665 176.036 226.792 176.424 226.792 176.912C226.792 177.403 226.659 177.79 226.393 178.074C226.129 178.356 225.759 178.496 225.284 178.496C224.863 178.496 224.519 178.38 224.253 178.146C223.987 177.913 223.835 177.59 223.798 177.177H224.371C224.408 177.45 224.505 177.656 224.662 177.796C224.819 177.933 225.026 178.002 225.284 178.002C225.565 178.002 225.786 177.906 225.945 177.714C226.106 177.522 226.187 177.257 226.187 176.919C226.187 176.6 226.1 176.345 225.925 176.153C225.753 175.959 225.523 175.862 225.235 175.862C224.971 175.862 224.763 175.92 224.613 176.035L224.452 176.166L223.968 176.042Z" fill="#172755"/>
<rect x="243.354" y="161.936" width="36.8634" height="29.0439" fill="white"/>
<path d="M259.912 178.431H256.79V177.996L258.439 176.163C258.684 175.886 258.852 175.661 258.943 175.489C259.037 175.314 259.084 175.134 259.084 174.949C259.084 174.7 259.009 174.496 258.858 174.337C258.708 174.177 258.507 174.098 258.256 174.098C257.955 174.098 257.72 174.184 257.552 174.356C257.387 174.526 257.304 174.764 257.304 175.07H256.698C256.698 174.631 256.839 174.277 257.12 174.006C257.404 173.736 257.783 173.6 258.256 173.6C258.699 173.6 259.049 173.717 259.307 173.95C259.564 174.182 259.693 174.49 259.693 174.877C259.693 175.346 259.394 175.904 258.796 176.552L257.52 177.937H259.912V178.431ZM262.929 173.662V174.176H262.818C262.347 174.185 261.972 174.325 261.692 174.595C261.413 174.866 261.252 175.246 261.208 175.737C261.459 175.449 261.801 175.305 262.236 175.305C262.65 175.305 262.981 175.452 263.227 175.744C263.476 176.036 263.6 176.414 263.6 176.876C263.6 177.367 263.466 177.76 263.198 178.054C262.932 178.349 262.574 178.496 262.124 178.496C261.668 178.496 261.299 178.322 261.015 177.973C260.731 177.621 260.589 177.17 260.589 176.618V176.385C260.589 175.508 260.776 174.838 261.149 174.376C261.524 173.911 262.082 173.673 262.821 173.662H262.929ZM262.134 175.809C261.927 175.809 261.736 175.872 261.561 175.996C261.387 176.12 261.266 176.276 261.198 176.464V176.686C261.198 177.079 261.287 177.396 261.463 177.636C261.64 177.876 261.86 177.996 262.124 177.996C262.397 177.996 262.611 177.895 262.766 177.694C262.923 177.494 263.001 177.231 263.001 176.906C263.001 176.578 262.922 176.314 262.763 176.114C262.605 175.911 262.396 175.809 262.134 175.809Z" fill="#172755"/>
<rect x="280.217" y="161.936" width="36.8634" height="29.0439" fill="white"/>
<path d="M296.776 178.431H293.654V177.996L295.303 176.163C295.547 175.886 295.715 175.661 295.807 175.489C295.901 175.314 295.948 175.134 295.948 174.949C295.948 174.7 295.873 174.496 295.722 174.337C295.571 174.177 295.371 174.098 295.12 174.098C294.819 174.098 294.584 174.184 294.416 174.356C294.25 174.526 294.167 174.764 294.167 175.07H293.562C293.562 174.631 293.703 174.277 293.984 174.006C294.268 173.736 294.646 173.6 295.12 173.6C295.563 173.6 295.913 173.717 296.17 173.95C296.428 174.182 296.557 174.49 296.557 174.877C296.557 175.346 296.258 175.904 295.66 176.552L294.383 177.937H296.776V178.431ZM300.494 174.006L298.52 178.431H297.885L299.852 174.163H297.273V173.666H300.494V174.006Z" fill="#172755"/>
<rect x="59.0366" y="190.98" width="36.8634" height="29.0439" fill="white"/>
<path d="M75.5949 207.475H72.4727V207.039L74.1222 205.207C74.3665 204.93 74.5345 204.705 74.6262 204.533C74.72 204.358 74.7669 204.178 74.7669 203.993C74.7669 203.744 74.6916 203.54 74.5411 203.381C74.3905 203.221 74.1898 203.142 73.9389 203.142C73.6378 203.142 73.4033 203.228 73.2353 203.4C73.0695 203.57 72.9866 203.808 72.9866 204.114H72.3811C72.3811 203.675 72.5218 203.321 72.8033 203.05C73.0869 202.78 73.4655 202.644 73.9389 202.644C74.3818 202.644 74.732 202.761 74.9894 202.994C75.2469 203.226 75.3756 203.534 75.3756 203.921C75.3756 204.39 75.0767 204.948 74.4789 205.596L73.2026 206.981H75.5949V207.475ZM79.1261 203.953C79.1261 204.191 79.0628 204.403 78.9363 204.588C78.8119 204.774 78.6428 204.919 78.429 205.023C78.6777 205.13 78.8741 205.286 79.0181 205.491C79.1643 205.697 79.2374 205.929 79.2374 206.189C79.2374 206.601 79.0977 206.929 78.8185 207.174C78.5414 207.418 78.1759 207.54 77.7221 207.54C77.2639 207.54 76.8963 207.418 76.6192 207.174C76.3443 206.927 76.2069 206.599 76.2069 206.189C76.2069 205.931 76.2767 205.699 76.4163 205.491C76.5581 205.284 76.7534 205.127 77.0021 205.02C76.7905 204.915 76.6236 204.77 76.5014 204.585C76.3792 204.4 76.3181 204.189 76.3181 203.953C76.3181 203.552 76.4469 203.233 76.7043 202.998C76.9618 202.762 77.301 202.644 77.7221 202.644C78.141 202.644 78.4792 202.762 78.7366 202.998C78.9963 203.233 79.1261 203.552 79.1261 203.953ZM78.6319 206.175C78.6319 205.909 78.5468 205.692 78.3767 205.524C78.2087 205.356 77.9883 205.272 77.7156 205.272C77.4429 205.272 77.2236 205.355 77.0578 205.521C76.8941 205.687 76.8123 205.905 76.8123 206.175C76.8123 206.446 76.892 206.659 77.0512 206.814C77.2127 206.969 77.4363 207.046 77.7221 207.046C78.0058 207.046 78.2283 206.969 78.3897 206.814C78.5512 206.657 78.6319 206.444 78.6319 206.175ZM77.7221 203.142C77.4843 203.142 77.2912 203.216 77.1429 203.364C76.9967 203.51 76.9236 203.71 76.9236 203.963C76.9236 204.205 76.9956 204.402 77.1396 204.552C77.2858 204.701 77.4799 204.775 77.7221 204.775C77.9643 204.775 78.1574 204.701 78.3014 204.552C78.4476 204.402 78.5207 204.205 78.5207 203.963C78.5207 203.721 78.4454 203.524 78.2948 203.371C78.1443 203.218 77.9534 203.142 77.7221 203.142Z" fill="#172755"/>
<rect x="95.8999" y="190.98" width="36.8634" height="29.0439" fill="white"/>
<path d="M112.458 207.475H109.336V207.039L110.986 205.207C111.23 204.93 111.398 204.705 111.49 204.533C111.584 204.358 111.63 204.178 111.63 203.993C111.63 203.744 111.555 203.54 111.405 203.381C111.254 203.221 111.053 203.142 110.802 203.142C110.501 203.142 110.267 203.228 110.099 203.4C109.933 203.57 109.85 203.808 109.85 204.114H109.245C109.245 203.675 109.385 203.321 109.667 203.05C109.95 202.78 110.329 202.644 110.802 202.644C111.245 202.644 111.596 202.761 111.853 202.994C112.11 203.226 112.239 203.534 112.239 203.921C112.239 204.39 111.94 204.948 111.342 205.596L110.066 206.981H112.458V207.475ZM115.42 205.38C115.294 205.531 115.142 205.652 114.965 205.743C114.791 205.835 114.599 205.881 114.389 205.881C114.114 205.881 113.874 205.813 113.669 205.678C113.466 205.543 113.309 205.353 113.198 205.109C113.087 204.862 113.031 204.59 113.031 204.294C113.031 203.975 113.091 203.688 113.211 203.433C113.333 203.178 113.506 202.982 113.728 202.847C113.951 202.712 114.21 202.644 114.507 202.644C114.978 202.644 115.349 202.821 115.62 203.174C115.893 203.526 116.029 204.006 116.029 204.614V204.791C116.029 205.718 115.846 206.396 115.479 206.823C115.113 207.249 114.559 207.467 113.82 207.478H113.702V206.967H113.83C114.329 206.959 114.713 206.829 114.982 206.578C115.25 206.325 115.396 205.926 115.42 205.38ZM114.487 205.38C114.69 205.38 114.877 205.318 115.047 205.194C115.219 205.069 115.345 204.915 115.423 204.732V204.49C115.423 204.093 115.337 203.77 115.165 203.521C114.993 203.273 114.774 203.148 114.51 203.148C114.244 203.148 114.03 203.251 113.869 203.456C113.707 203.659 113.627 203.927 113.627 204.261C113.627 204.586 113.704 204.854 113.859 205.066C114.016 205.275 114.226 205.38 114.487 205.38Z" fill="#172755"/>
<rect x="132.763" y="190.98" width="36.8634" height="29.0439" fill="white"/>
<path d="M147.08 204.798H147.535C147.821 204.793 148.046 204.718 148.209 204.572C148.373 204.426 148.455 204.228 148.455 203.98C148.455 203.421 148.176 203.142 147.62 203.142C147.358 203.142 147.149 203.217 146.992 203.368C146.837 203.516 146.759 203.713 146.759 203.96H146.154C146.154 203.582 146.291 203.269 146.566 203.021C146.843 202.77 147.195 202.644 147.62 202.644C148.07 202.644 148.422 202.763 148.677 203.001C148.932 203.239 149.06 203.569 149.06 203.993C149.06 204.2 148.992 204.401 148.857 204.595C148.724 204.789 148.542 204.934 148.311 205.03C148.572 205.113 148.774 205.25 148.916 205.442C149.06 205.634 149.132 205.869 149.132 206.146C149.132 206.574 148.992 206.913 148.713 207.164C148.434 207.415 148.071 207.54 147.623 207.54C147.176 207.54 146.812 207.419 146.53 207.177C146.251 206.935 146.111 206.615 146.111 206.218H146.72C146.72 206.469 146.802 206.67 146.966 206.82C147.129 206.971 147.349 207.046 147.623 207.046C147.916 207.046 148.139 206.97 148.294 206.817C148.449 206.664 148.527 206.445 148.527 206.159C148.527 205.882 148.442 205.669 148.271 205.521C148.101 205.373 147.856 205.296 147.535 205.292H147.08V204.798ZM152.951 205.442C152.951 206.151 152.83 206.678 152.588 207.023C152.346 207.368 151.967 207.54 151.452 207.54C150.944 207.54 150.568 207.372 150.323 207.036C150.079 206.698 149.952 206.194 149.944 205.524V204.716C149.944 204.016 150.065 203.495 150.307 203.155C150.549 202.814 150.929 202.644 151.446 202.644C151.959 202.644 152.336 202.809 152.578 203.138C152.82 203.466 152.945 203.972 152.951 204.657V205.442ZM152.346 204.614C152.346 204.102 152.274 203.729 152.13 203.495C151.986 203.26 151.758 203.142 151.446 203.142C151.136 203.142 150.91 203.258 150.768 203.492C150.627 203.725 150.554 204.084 150.549 204.569V205.537C150.549 206.052 150.623 206.433 150.772 206.679C150.922 206.924 151.149 207.046 151.452 207.046C151.751 207.046 151.973 206.93 152.117 206.699C152.263 206.468 152.339 206.103 152.346 205.606V204.614Z" fill="#172755"/>
<rect x="169.627" y="190.98" width="36.8634" height="29.0439" fill="white"/>
<path d="M183.943 204.798H184.398C184.684 204.793 184.909 204.718 185.072 204.572C185.236 204.426 185.318 204.228 185.318 203.98C185.318 203.421 185.04 203.142 184.483 203.142C184.221 203.142 184.012 203.217 183.855 203.368C183.7 203.516 183.622 203.713 183.622 203.96H183.017C183.017 203.582 183.154 203.269 183.429 203.021C183.706 202.77 184.058 202.644 184.483 202.644C184.933 202.644 185.285 202.763 185.54 203.001C185.796 203.239 185.923 203.569 185.923 203.993C185.923 204.2 185.856 204.401 185.72 204.595C185.587 204.789 185.405 204.934 185.174 205.03C185.436 205.113 185.637 205.25 185.779 205.442C185.923 205.634 185.995 205.869 185.995 206.146C185.995 206.574 185.856 206.913 185.576 207.164C185.297 207.415 184.934 207.54 184.486 207.54C184.039 207.54 183.675 207.419 183.393 207.177C183.114 206.935 182.974 206.615 182.974 206.218H183.583C183.583 206.469 183.665 206.67 183.829 206.82C183.992 206.971 184.212 207.046 184.486 207.046C184.779 207.046 185.002 206.97 185.157 206.817C185.312 206.664 185.39 206.445 185.39 206.159C185.39 205.882 185.305 205.669 185.134 205.521C184.964 205.373 184.719 205.296 184.398 205.292H183.943V204.798ZM188.816 207.475H188.207V203.44L186.987 203.888V203.338L188.721 202.687H188.816V207.475Z" fill="#172755"/>
<rect x="206.49" y="190.98" width="36.8634" height="29.0439" fill="white"/>
<rect x="243.354" y="190.98" width="36.8634" height="29.0439" fill="white"/>
<rect x="280.217" y="190.98" width="36.8634" height="29.0439" fill="white"/>
<path d="M69.2777 51.9048L70.8354 55.7927L72.3932 51.9048H73.2081V56.6698H72.5798V54.8142L72.6387 52.8113L71.0744 56.6698H70.5933L69.0322 52.8211L69.0944 54.8142V56.6698H68.466V51.9048H69.2777ZM77.983 54.4411C77.983 54.908 77.9044 55.316 77.7473 55.6651C77.5903 56.012 77.3677 56.2771 77.0797 56.4603C76.7917 56.6436 76.4557 56.7353 76.0717 56.7353C75.6965 56.7353 75.3637 56.6436 75.0736 56.4603C74.7834 56.2749 74.5576 56.012 74.3961 55.6716C74.2368 55.3291 74.155 54.9331 74.1507 54.4837V54.14C74.1507 53.6818 74.2303 53.2771 74.3896 52.9259C74.5488 52.5746 74.7736 52.3062 75.0637 52.1208C75.3561 51.9331 75.6899 51.8393 76.0652 51.8393C76.447 51.8393 76.783 51.9321 77.0732 52.1175C77.3655 52.3008 77.5903 52.568 77.7473 52.9193C77.9044 53.2684 77.983 53.6753 77.983 54.14V54.4411ZM77.3579 54.1335C77.3579 53.5684 77.2444 53.1353 77.0175 52.8342C76.7906 52.531 76.4732 52.3793 76.0652 52.3793C75.6681 52.3793 75.355 52.531 75.1259 52.8342C74.899 53.1353 74.7823 53.5542 74.7758 54.0909V54.4411C74.7758 54.9887 74.8903 55.4196 75.1194 55.7338C75.3507 56.0458 75.6681 56.2018 76.0717 56.2018C76.4775 56.2018 76.7917 56.0545 77.0143 55.76C77.2368 55.4633 77.3513 55.0389 77.3579 54.4869V54.1335ZM82.5876 56.6698H81.956L79.5571 52.9979V56.6698H78.9255V51.9048H79.5571L81.9625 55.5931V51.9048H82.5876V56.6698Z" fill="#8794BA"/>
<path d="M111.339 52.4219H109.807V56.6698H109.182V52.4219H107.654V51.9048H111.339V52.4219ZM115.4 51.9048V55.1447C115.398 55.5942 115.256 55.9618 114.975 56.2476C114.695 56.5334 114.316 56.6938 113.836 56.7287L113.669 56.7353C113.147 56.7353 112.732 56.5945 112.422 56.3131C112.112 56.0316 111.955 55.6444 111.951 55.1513V51.9048H112.572V55.1316C112.572 55.4764 112.667 55.7447 112.857 55.9367C113.047 56.1265 113.317 56.2214 113.669 56.2214C114.024 56.2214 114.296 56.1265 114.484 55.9367C114.673 55.7469 114.768 55.4796 114.768 55.1349V51.9048H115.4ZM119.085 54.4673H117.02V56.156H119.419V56.6698H116.392V51.9048H119.386V52.4219H117.02V53.9535H119.085V54.4673Z" fill="#8794BA"/>
<path d="M144.819 55.1676L144.91 55.796L145.045 55.2298L145.987 51.9048H146.517L147.437 55.2298L147.568 55.8058L147.669 55.1644L148.409 51.9048H149.041L147.885 56.6698H147.313L146.331 53.1975L146.256 52.8342L146.18 53.1975L145.162 56.6698H144.59L143.438 51.9048H144.066L144.819 55.1676ZM152.434 54.4673H150.369V56.156H152.768V56.6698H149.741V51.9048H152.735V52.4219H150.369V53.9535H152.434V54.4673ZM153.55 56.6698V51.9048H154.895C155.31 51.9048 155.676 51.9964 155.995 52.1797C156.314 52.363 156.559 52.6237 156.731 52.9619C156.906 53.3 156.994 53.6884 156.996 54.1269V54.4313C156.996 54.8807 156.909 55.2745 156.735 55.6127C156.562 55.9509 156.315 56.2105 155.992 56.3916C155.671 56.5727 155.297 56.6654 154.869 56.6698H153.55ZM154.179 52.4219V56.156H154.84C155.324 56.156 155.7 56.0054 155.969 55.7044C156.239 55.4033 156.375 54.9746 156.375 54.4182V54.14C156.375 53.5989 156.247 53.1789 155.992 52.88C155.739 52.579 155.379 52.4262 154.912 52.4219H154.179Z" fill="#8794BA"/>
<path d="M183.523 52.4219H181.991V56.6698H181.366V52.4219H179.838V51.9048H183.523V52.4219ZM187.892 56.6698H187.26V54.4673H184.858V56.6698H184.23V51.9048H184.858V53.9535H187.26V51.9048H187.892V56.6698ZM192.362 51.9048V55.1447C192.36 55.5942 192.218 55.9618 191.937 56.2476C191.657 56.5334 191.278 56.6938 190.798 56.7287L190.631 56.7353C190.109 56.7353 189.694 56.5945 189.384 56.3131C189.074 56.0316 188.917 55.6444 188.913 55.1513V51.9048H189.535V55.1316C189.535 55.4764 189.63 55.7447 189.819 55.9367C190.009 56.1265 190.28 56.2214 190.631 56.2214C190.987 56.2214 191.258 56.1265 191.446 55.9367C191.636 55.7469 191.731 55.4796 191.731 55.1349V51.9048H192.362Z" fill="#8794BA"/>
<path d="M222.129 54.5655H220.129V56.6698H219.501V51.9048H222.453V52.4219H220.129V54.0517H222.129V54.5655ZM224.953 54.7422H223.834V56.6698H223.202V51.9048H224.78C225.316 51.9048 225.729 52.027 226.017 52.2713C226.307 52.5157 226.452 52.8713 226.452 53.3382C226.452 53.6349 226.371 53.8935 226.21 54.1138C226.05 54.3342 225.828 54.4989 225.542 54.608L226.661 56.6305V56.6698H225.987L224.953 54.7422ZM223.834 54.2284H224.799C225.111 54.2284 225.359 54.1477 225.542 53.9862C225.727 53.8248 225.82 53.6088 225.82 53.3382C225.82 53.0437 225.732 52.8179 225.555 52.6608C225.381 52.5037 225.128 52.424 224.796 52.4219H223.834V54.2284ZM228.01 56.6698H227.381V51.9048H228.01V56.6698Z" fill="#8794BA"/>
<path d="M256.519 54.5458C255.98 54.3909 255.587 54.2011 255.34 53.9764C255.096 53.7495 254.974 53.4702 254.974 53.1386C254.974 52.7633 255.123 52.4535 255.422 52.2091C255.723 51.9626 256.114 51.8393 256.594 51.8393C256.921 51.8393 257.212 51.9026 257.468 52.0291C257.725 52.1557 257.924 52.3302 258.063 52.5528C258.205 52.7753 258.276 53.0186 258.276 53.2826H257.644C257.644 52.9946 257.553 52.7688 257.37 52.6051C257.186 52.4393 256.928 52.3564 256.594 52.3564C256.284 52.3564 256.042 52.4251 255.867 52.5626C255.695 52.6979 255.609 52.8866 255.609 53.1288C255.609 53.3229 255.691 53.4877 255.854 53.6229C256.02 53.756 256.3 53.8782 256.695 53.9895C257.092 54.1007 257.402 54.224 257.625 54.3593C257.85 54.4924 258.015 54.6484 258.122 54.8273C258.231 55.0062 258.286 55.2167 258.286 55.4589C258.286 55.8451 258.135 56.1549 257.834 56.3883C257.533 56.6196 257.131 56.7353 256.627 56.7353C256.299 56.7353 255.994 56.6731 255.71 56.5487C255.427 56.4222 255.207 56.2498 255.053 56.0316C254.9 55.8134 254.823 55.5658 254.823 55.2887H255.455C255.455 55.5767 255.561 55.8047 255.772 55.9727C255.986 56.1385 256.271 56.2214 256.627 56.2214C256.958 56.2214 257.212 56.1538 257.389 56.0185C257.566 55.8833 257.654 55.6989 257.654 55.4655C257.654 55.232 257.572 55.052 257.409 54.9255C257.245 54.7967 256.948 54.6702 256.519 54.5458ZM261.725 55.4262H259.729L259.281 56.6698H258.633L260.452 51.9048H261.002L262.825 56.6698H262.18L261.725 55.4262ZM259.919 54.9091H261.539L260.727 52.6804L259.919 54.9091ZM266.333 52.4219H264.802V56.6698H264.177V52.4219H262.648V51.9048H266.333V52.4219Z" fill="#8794BA"/>
<path d="M292.234 54.5458C291.695 54.3909 291.303 54.2011 291.056 53.9764C290.812 53.7495 290.69 53.4702 290.69 53.1386C290.69 52.7633 290.839 52.4535 291.138 52.2091C291.439 51.9626 291.83 51.8393 292.31 51.8393C292.637 51.8393 292.928 51.9026 293.183 52.0291C293.441 52.1557 293.639 52.3302 293.779 52.5528C293.921 52.7753 293.992 53.0186 293.992 53.2826H293.36C293.36 52.9946 293.268 52.7688 293.085 52.6051C292.902 52.4393 292.643 52.3564 292.31 52.3564C292 52.3564 291.758 52.4251 291.583 52.5626C291.411 52.6979 291.324 52.8866 291.324 53.1288C291.324 53.3229 291.406 53.4877 291.57 53.6229C291.736 53.756 292.016 53.8782 292.411 53.9895C292.808 54.1007 293.118 54.224 293.34 54.3593C293.565 54.4924 293.731 54.6484 293.838 54.8273C293.947 55.0062 294.002 55.2167 294.002 55.4589C294.002 55.8451 293.851 56.1549 293.55 56.3883C293.249 56.6196 292.846 56.7353 292.342 56.7353C292.015 56.7353 291.71 56.6731 291.426 56.5487C291.142 56.4222 290.923 56.2498 290.768 56.0316C290.615 55.8134 290.539 55.5658 290.539 55.2887H291.171C291.171 55.5767 291.276 55.8047 291.488 55.9727C291.702 56.1385 291.987 56.2214 292.342 56.2214C292.674 56.2214 292.928 56.1538 293.105 56.0185C293.282 55.8833 293.37 55.6989 293.37 55.4655C293.37 55.232 293.288 55.052 293.124 54.9255C292.961 54.7967 292.664 54.6702 292.234 54.5458ZM298.164 51.9048V55.1447C298.162 55.5942 298.02 55.9618 297.739 56.2476C297.46 56.5334 297.08 56.6938 296.6 56.7287L296.433 56.7353C295.912 56.7353 295.496 56.5945 295.186 56.3131C294.876 56.0316 294.719 55.6444 294.715 55.1513V51.9048H295.337V55.1316C295.337 55.4764 295.432 55.7447 295.621 55.9367C295.811 56.1265 296.082 56.2214 296.433 56.2214C296.789 56.2214 297.06 56.1265 297.248 55.9367C297.438 55.7469 297.533 55.4796 297.533 55.1349V51.9048H298.164ZM302.818 56.6698H302.186L299.788 52.9979V56.6698H299.156V51.9048H299.788L302.193 55.5931V51.9048H302.818V56.6698Z" fill="#8794BA"/>
<defs>
<filter id="filter0_d_535_2558" x="-15.061" y="0.833252" width="405.122" height="299" filterUnits="userSpaceOnUse" color-interpolation-filters="sRGB">
<feFlood flood-opacity="0" result="BackgroundImageFix"/>
<feColorMatrix in="SourceAlpha" type="matrix" values="0 0 0 0 0 0 0 0 0 0 0 0 0 0 0 0 0 0 127 0" result="hardAlpha"/>
<feMorphology radius="15" operator="erode" in="SourceAlpha" result="effect1_dropShadow_535_2558"/>
<feOffset dy="18"/>
<feGaussianBlur stdDeviation="25"/>
<feColorMatrix type="matrix" values="0 0 0 0 0.0996452 0 0 0 0 0.164326 0 0 0 0 0.350284 0 0 0 0.2 0"/>
<feBlend mode="normal" in2="BackgroundImageFix" result="effect1_dropShadow_535_2558"/>
<feBlend mode="normal" in="SourceGraphic" in2="effect1_dropShadow_535_2558" result="shape"/>
</filter>
</defs>
</svg>
