<svg width="61" height="60" viewBox="0 0 61 60" fill="none" xmlns="http://www.w3.org/2000/svg">
<g clip-path="url(#clip0_535_2472)">
<path d="M33.5 41H27.5C26.948 41 26.5 41.448 26.5 42C26.5 42.5519 26.948 43 27.5 43H33.5C34.0519 43 34.4999 42.5519 34.4999 42C34.4999 41.448 34.0519 41 33.5 41Z" fill="#EF2A82"/>
<path d="M56.499 1H4.50102C2.29496 1 0.5 2.79508 0.5 5.00102V38C0.5 38.5519 0.948008 38.9999 1.49996 38.9999H59.4999C60.0519 38.9999 60.4999 38.5519 60.4999 38V5.00102C60.5 2.79508 58.705 1 56.499 1ZM58.5 37H2.50004V5.00102C2.50004 3.89699 3.39805 3.00004 4.50102 3.00004H56.499C57.602 3.00004 58.5 3.89699 58.5 5.00102V37Z" fill="#EF2A82"/>
<path d="M59.5 36.9999H1.49996C0.948008 36.9999 0.5 37.448 0.5 38V42.9989C0.5 45.2049 2.29496 46.9999 4.50102 46.9999H56.499C58.705 46.9999 60.5 45.2049 60.5 42.9989L60.4999 38C60.4999 37.448 60.052 36.9999 59.5 36.9999ZM58.5 42.999C58.5 44.103 57.602 45 56.499 45H4.50102C3.39805 45 2.50004 44.103 2.50004 42.999V39H58.5001L58.5 42.999Z" fill="#EF2A82"/>
<path d="M55.4999 5.00005H5.50001C4.94806 5.00005 4.50005 5.44806 4.50005 6.00001V38C4.50005 38.552 4.94806 39 5.50001 39H55.5C56.052 39 56.5 38.552 56.5 38V6.00001C56.5 5.44806 56.052 5.00005 55.4999 5.00005ZM54.5 37H6.49997V6.99997H54.5V37Z" fill="#EF2A82"/>
<path d="M43.4999 53.0001H17.5C15.846 53.0001 14.5 54.3461 14.5 56.0001C14.5 57.6541 15.846 59.0001 17.5 59.0001H43.5C45.154 59.0001 46.5 57.6541 46.5 56.0001C46.5 54.3461 45.1539 53.0001 43.4999 53.0001ZM43.4999 57H17.5C16.9481 57 16.5 56.5511 16.5 56.0001C16.5 55.4491 16.9481 55.0001 17.5 55.0001H43.5C44.052 55.0001 44.5 55.4491 44.5 56.0001C44.5 56.5511 44.052 57 43.4999 57Z" fill="#EF2A82"/>
<path d="M41.5 53.0001C38.1819 53.0001 36.4999 50.6451 36.4999 46.0001C36.4999 45.4482 36.0519 45.0001 35.5 45.0001H25.5C24.9481 45.0001 24.5 45.4482 24.5 46.0001C24.5 50.6451 22.8181 53.0001 19.5 53.0001C18.9481 53.0001 18.5 53.4481 18.5 54C18.5 54.552 18.9481 55 19.5 55H41.5C42.0519 55 42.4999 54.552 42.4999 54C42.4999 53.4481 42.0519 53.0001 41.5 53.0001ZM24.3709 53.0001C25.602 51.6361 26.3269 49.605 26.4729 47.0001H34.5279C34.6729 49.605 35.3979 51.6361 36.6299 53.0001H24.3709Z" fill="#EF2A82"/>
<path d="M48.284 30.464L45.87 28.05L47.213 26.707C47.462 26.458 47.562 26.096 47.476 25.755C47.3899 25.414 47.131 25.144 46.7939 25.042L36.794 22.042C36.441 21.936 36.06 22.033 35.8 22.2931C35.539 22.5531 35.443 22.935 35.549 23.287L38.549 33.287C38.65 33.625 38.9209 33.884 39.2619 33.97C39.6019 34.054 39.9649 33.9559 40.214 33.707L41.628 32.292L44.0419 34.707C44.2289 34.8949 44.4839 34.9999 44.7489 34.9999C45.0138 34.9999 45.2688 34.8949 45.4559 34.707L48.2838 31.8779C48.6749 31.487 48.6749 30.855 48.284 30.464ZM44.7489 32.586L42.5509 30.387C42.2959 30.132 41.9619 30.0049 41.628 30.0049C41.2929 30.0049 40.9589 30.1329 40.705 30.3859L39.983 31.1079L37.998 24.4909L44.6149 26.4759L43.8409 27.25C43.6279 27.464 43.5109 27.748 43.5109 28.05C43.5109 28.3531 43.6289 28.639 43.8429 28.851L46.1629 31.1709L44.7489 32.586Z" fill="#EF2A82"/>
<path d="M42.4999 8.99997H14.5C13.948 8.99997 13.5 9.44798 13.5 9.99993V15C13.5 15.5519 13.948 15.9999 14.5 15.9999H42.4999C43.0519 15.9999 43.4999 15.5519 43.4999 15V9.99993C43.4999 9.44798 43.0519 8.99997 42.4999 8.99997ZM41.5 14H15.4999V11H41.5V14Z" fill="#EF2A82"/>
<path d="M26.5001 20.0001H18.5001C17.9481 20.0001 17.5001 20.4481 17.5001 21V25C17.5001 25.5519 17.9481 25.9999 18.5001 25.9999H26.5001C27.0521 25.9999 27.5001 25.5519 27.5001 25V21C27.5001 20.4481 27.0521 20.0001 26.5001 20.0001ZM25.5001 24H19.5001V22H25.5001V24Z" fill="#EF2A82"/>
<path d="M42.4999 8.99997H14.5C13.948 8.99997 13.5 9.44798 13.5 9.99993V28.9999C13.5 29.5518 13.948 29.9999 14.5 29.9999H38.306C38.623 29.9999 38.92 29.8509 39.108 29.5968C39.2971 29.3429 39.3551 29.0149 39.264 28.7118L37.998 24.4909L42.213 25.7559C42.5161 25.847 42.8441 25.789 43.097 25.5999C43.3509 25.412 43.5 25.114 43.5 24.7979L43.4999 9.99993C43.4999 9.44798 43.0519 8.99997 42.4999 8.99997ZM41.5 23.454L36.7929 22.042C36.4399 21.9359 36.0589 22.033 35.7989 22.293C35.5379 22.554 35.442 22.935 35.5479 23.2881L36.9619 28H15.4999V11H41.5V23.454Z" fill="#EF2A82"/>
</g>
<defs>
<clipPath id="clip0_535_2472">
<rect width="60" height="60" fill="white" transform="translate(0.5)"/>
</clipPath>
</defs>
</svg>
